<?xml version="1.0" standalone="yes"?>
<svg xmlns="http://www.w3.org/2000/svg" width="874" height="989">
<path style="fill:#010101; stroke:none;" d="M0 0L0 246L44 221.85L120 178.85L324 63.5756L435 1C424.973 -3.20776 407.896 0 397 0L308 0L0 0z"/>
<path style="fill:#fefeff; stroke:none;" d="M435 0.692139C423.265 3.53534 410.48 14.0099 400 19.9992C376.728 33.2991 353.255 46.2466 330 59.5787C256.263 101.852 182.217 143.712 108 185.14C81.93 199.692 56.2282 214.968 30 229.231C22.93 233.075 3.92914 239.89 0.603395 247.329C-2.9372 255.248 0 270.343 0 279L0 356L0 625L0 711C0 718.46 -3.2812 736.18 1.02778 742.363C4.85597 747.856 16.2199 751.696 22 754.999C39.266 764.867 56.5694 774.732 74 784.306C133.392 816.927 192.035 851.036 251 884.424C296.331 910.092 341.783 935.554 387 961.421C398.956 968.261 411.025 974.912 423 981.719C427.089 984.044 433.035 989.089 438 988.369C448.202 986.89 461.073 976.131 470 971C493.24 957.644 516.746 944.753 540 931.421C616.418 887.61 693.424 844.818 770 801.281C794.965 787.087 819.924 772.857 845 758.86C851.831 755.047 870.032 748.766 873.397 741.61C877.011 733.922 874 718.48 874 710L874 634L874 363L874 279C874 271.04 877.345 253.268 872.972 246.529C870.185 242.234 862.348 239.632 858 237.15C845.37 229.941 832.746 222.695 820 215.694C778.397 192.844 737.304 168.964 696 145.576C631.041 108.793 566.58 70.8922 501 35.2307C485.197 26.6372 469.767 17.3547 454 8.69446C448.799 5.83801 441.287 -0.831177 435 0.692139z"/>
<path style="fill:#010101; stroke:none;" d="M439 0L439 1L550 63.5756L754 178.85L830 221.85L874 246L874 0L439 0z"/>
<path style="fill:#8fd5fb; stroke:none;" d="M68 269C75.7306 275.717 86.2069 279.964 95 285.201C116.152 297.798 137.618 309.946 159 322.15C167.913 327.238 182.654 340.125 193 340.512C198.212 340.706 204.624 335.485 209 333C220.896 326.244 232.981 319.767 245 313.231C287.767 289.975 330.487 266.577 373 242.86C383.619 236.936 394.232 230.903 405 225.255C409.403 222.946 417.36 220.215 419.972 215.787C421.986 212.374 421 206.806 421 203L421 175L421 70L377 94.1505L295 140.576L68 269M451 70L451 176L451 204C451 207.444 450.092 212.563 452.028 215.61C454.833 220.028 462.578 222.408 467 224.861C479.308 231.688 491.536 238.718 504 245.255C545.076 266.799 585.222 290.202 626 312.309C638.712 319.2 651.194 326.539 664 333.255C668.593 335.664 674.558 340.75 680 340.397C690.867 339.691 705.606 326.633 715 321.281C744.739 304.337 774.52 287.386 804 270L774 251.579L705 212.579L537 117.579L477 83.6945L451 70M435.667 242.333L436.333 242.667L435.667 242.333z"/>
<path style="fill:#408ecb; stroke:none;" d="M434 243L435 244L434 243z"/>
<path style="fill:#1d79c1; stroke:none;" d="M225 359C238.999 372.109 261.325 380.862 278 390.421C313.055 410.519 347.966 430.866 383 451C395.687 458.291 408.382 465.579 421 472.989C425.32 475.526 431.737 480.848 437 480.369C442.919 479.83 449.929 473.915 455 471L495 447.85C527.711 429.074 560.23 409.952 593 391.281C610.735 381.176 632.37 372.086 648 359C597.482 329.486 545.403 302.183 494 274.231C480.3 266.781 466.669 259.201 453 251.694C448.346 249.139 441.503 243.497 436 243.668C430 243.855 422.158 250.262 417 253.14C403.379 260.738 389.671 268.187 376 275.694C326.111 303.093 272.496 327.676 225 359z"/>
<path style="fill:#8fd5fb; stroke:none;" d="M438 243L439 244L438 243M432 244L433 245L432 244z"/>
<path style="fill:#408ecb; stroke:none;" d="M439 244L440 245L439 244z"/>
<path style="fill:#8fd5fb; stroke:none;" d="M440 244L441 245L440 244M430 245L431 246L430 245z"/>
<path style="fill:#408ecb; stroke:none;" d="M441 245L442 246L441 245z"/>
<path style="fill:#8fd5fb; stroke:none;" d="M442 245L443 246L442 245M428 246L429 247L428 246z"/>
<path style="fill:#408ecb; stroke:none;" d="M429 246L430 247L429 246M443 246L444 247L443 246z"/>
<path style="fill:#8fd5fb; stroke:none;" d="M426 247L427 248L426 247z"/>
<path style="fill:#408ecb; stroke:none;" d="M427 247L428 248L427 247M445 247L446 248L445 247M425 248L426 249L425 248z"/>
<path style="fill:#8fd5fb; stroke:none;" d="M447 248L448 249L447 248z"/>
<path style="fill:#408ecb; stroke:none;" d="M423 249L424 250L423 249z"/>
<path style="fill:#8fd5fb; stroke:none;" d="M449 249L450 250L449 249M421 250L422 251L421 250z"/>
<path style="fill:#408ecb; stroke:none;" d="M450 250L451 251L450 250z"/>
<path style="fill:#8fd5fb; stroke:none;" d="M451 250L452 251L451 250M419 251L420 252L419 251z"/>
<path style="fill:#408ecb; stroke:none;" d="M452 251L453 252L452 251z"/>
<path style="fill:#8fd5fb; stroke:none;" d="M453 251L454 252L453 251M417 252L418 253L417 252z"/>
<path style="fill:#408ecb; stroke:none;" d="M418 252L419 253L418 252M454 252L455 253L454 252z"/>
<path style="fill:#8fd5fb; stroke:none;" d="M415 253L416 254L415 253z"/>
<path style="fill:#408ecb; stroke:none;" d="M416 253L417 254L416 253z"/>
<path style="fill:#8fd5fb; stroke:none;" d="M456 253L457 254L456 253z"/>
<path style="fill:#408ecb; stroke:none;" d="M414 254L415 255L414 254z"/>
<path style="fill:#8fd5fb; stroke:none;" d="M458 254L459 255L458 254M412 255L413 256L412 255z"/>
<path style="fill:#408ecb; stroke:none;" d="M459 255L460 256L459 255z"/>
<path style="fill:#8fd5fb; stroke:none;" d="M460 255L461 256L460 255M410 256L411 257L410 256z"/>
<path style="fill:#408ecb; stroke:none;" d="M461 256L462 257L461 256z"/>
<path style="fill:#8fd5fb; stroke:none;" d="M462 256L463 257L462 256M408 257L409 258L408 257z"/>
<path style="fill:#408ecb; stroke:none;" d="M409 257L410 258L409 257M463 257L464 258L463 257z"/>
<path style="fill:#8fd5fb; stroke:none;" d="M406 258L407 259L406 258z"/>
<path style="fill:#408ecb; stroke:none;" d="M407 258L408 259L407 258M465 258L466 259L465 258M405 259L406 260L405 259z"/>
<path style="fill:#8fd5fb; stroke:none;" d="M467 259L468 260L467 259z"/>
<path style="fill:#408ecb; stroke:none;" d="M403 260L404 261L403 260z"/>
<path style="fill:#8fd5fb; stroke:none;" d="M469 260L470 261L469 260M401 261L402 262L401 261z"/>
<path style="fill:#408ecb; stroke:none;" d="M470 261L471 262L470 261z"/>
<path style="fill:#8fd5fb; stroke:none;" d="M471 261L472 262L471 261M399 262L400 263L399 262z"/>
<path style="fill:#408ecb; stroke:none;" d="M472 262L473 263L472 262z"/>
<path style="fill:#8fd5fb; stroke:none;" d="M473 262L474 263L473 262M397 263L398 264L397 263z"/>
<path style="fill:#408ecb; stroke:none;" d="M398 263L399 264L398 263M474 263L475 264L474 263z"/>
<path style="fill:#8fd5fb; stroke:none;" d="M395 264L396 265L395 264z"/>
<path style="fill:#408ecb; stroke:none;" d="M396 264L397 265L396 264z"/>
<path style="fill:#8fd5fb; stroke:none;" d="M476 264L477 265L476 264z"/>
<path style="fill:#408ecb; stroke:none;" d="M394 265L395 266L394 265z"/>
<path style="fill:#8fd5fb; stroke:none;" d="M478 265L479 266L478 265M392 266L393 267L392 266z"/>
<path style="fill:#408ecb; stroke:none;" d="M479 266L480 267L479 266z"/>
<path style="fill:#8fd5fb; stroke:none;" d="M480 266L481 267L480 266M390 267L391 268L390 267z"/>
<path style="fill:#408ecb; stroke:none;" d="M481 267L482 268L481 267z"/>
<path style="fill:#8fd5fb; stroke:none;" d="M482 267L483 268L482 267M388 268L389 269L388 268z"/>
<path style="fill:#408ecb; stroke:none;" d="M389 268L390 269L389 268M483 268L484 269L483 268z"/>
<path style="fill:#8fd5fb; stroke:none;" d="M386 269L387 270L386 269z"/>
<path style="fill:#408ecb; stroke:none;" d="M387 269L388 270L387 269M485 269L486 270L485 269M385 270L386 271L385 270z"/>
<path style="fill:#8fd5fb; stroke:none;" d="M487 270L488 271L487 270z"/>
<path style="fill:#408ecb; stroke:none;" d="M383 271L384 272L383 271z"/>
<path style="fill:#8fd5fb; stroke:none;" d="M489 271L490 272L489 271M381 272L382 273L381 272z"/>
<path style="fill:#408ecb; stroke:none;" d="M490 272L491 273L490 272z"/>
<path style="fill:#8fd5fb; stroke:none;" d="M491 272L492 273L491 272M379 273L380 274L379 273z"/>
<path style="fill:#408ecb; stroke:none;" d="M492 273L493 274L492 273z"/>
<path style="fill:#8fd5fb; stroke:none;" d="M493 273L494 274L493 273M377 274L378 275L377 274z"/>
<path style="fill:#408ecb; stroke:none;" d="M378 274L379 275L378 274M494 274L495 275L494 274z"/>
<path style="fill:#8fd5fb; stroke:none;" d="M375 275L376 276L375 275z"/>
<path style="fill:#408ecb; stroke:none;" d="M376 275L377 276L376 275z"/>
<path style="fill:#8fd5fb; stroke:none;" d="M496 275L497 276L496 275z"/>
<path style="fill:#408ecb; stroke:none;" d="M374 276L375 277L374 276z"/>
<path style="fill:#8fd5fb; stroke:none;" d="M498 276L499 277L498 276M372 277L373 278L372 277z"/>
<path style="fill:#408ecb; stroke:none;" d="M499 277L500 278L499 277z"/>
<path style="fill:#8fd5fb; stroke:none;" d="M500 277L501 278L500 277M370 278L371 279L370 278z"/>
<path style="fill:#408ecb; stroke:none;" d="M501 278L502 279L501 278z"/>
<path style="fill:#8fd5fb; stroke:none;" d="M502 278L503 279L502 278M368 279L369 280L368 279z"/>
<path style="fill:#408ecb; stroke:none;" d="M369 279L370 280L369 279M503 279L504 280L503 279z"/>
<path style="fill:#8fd5fb; stroke:none;" d="M366 280L367 281L366 280z"/>
<path style="fill:#408ecb; stroke:none;" d="M367 280L368 281L367 280M505 280L506 281L505 280M365 281L366 282L365 281z"/>
<path style="fill:#8fd5fb; stroke:none;" d="M507 281L508 282L507 281z"/>
<path style="fill:#408ecb; stroke:none;" d="M363 282L364 283L363 282z"/>
<path style="fill:#8fd5fb; stroke:none;" d="M509 282L510 283L509 282M361 283L362 284L361 283z"/>
<path style="fill:#408ecb; stroke:none;" d="M510 283L511 284L510 283z"/>
<path style="fill:#8fd5fb; stroke:none;" d="M511 283L512 284L511 283M359 284L360 285L359 284z"/>
<path style="fill:#408ecb; stroke:none;" d="M512 284L513 285L512 284z"/>
<path style="fill:#8fd5fb; stroke:none;" d="M513 284L514 285L513 284M357 285L358 286L357 285z"/>
<path style="fill:#408ecb; stroke:none;" d="M358 285L359 286L358 285M514 285L515 286L514 285z"/>
<path style="fill:#8fd5fb; stroke:none;" d="M355 286L356 287L355 286z"/>
<path style="fill:#408ecb; stroke:none;" d="M356 286L357 287L356 286z"/>
<path style="fill:#8fd5fb; stroke:none;" d="M516 286L517 287L516 286z"/>
<path style="fill:#408ecb; stroke:none;" d="M354 287L355 288L354 287z"/>
<path style="fill:#8fd5fb; stroke:none;" d="M518 287L519 288L518 287M352 288L353 289L352 288z"/>
<path style="fill:#408ecb; stroke:none;" d="M519 288L520 289L519 288z"/>
<path style="fill:#8fd5fb; stroke:none;" d="M520 288L521 289L520 288M350 289L351 290L350 289z"/>
<path style="fill:#408ecb; stroke:none;" d="M521 289L522 290L521 289z"/>
<path style="fill:#8fd5fb; stroke:none;" d="M522 289L523 290L522 289M348 290L349 291L348 290z"/>
<path style="fill:#408ecb; stroke:none;" d="M349 290L350 291L349 290M523 290L524 291L523 290z"/>
<path style="fill:#8fd5fb; stroke:none;" d="M346 291L347 292L346 291z"/>
<path style="fill:#408ecb; stroke:none;" d="M347 291L348 292L347 291M525 291L526 292L525 291M345 292L346 293L345 292z"/>
<path style="fill:#8fd5fb; stroke:none;" d="M527 292L528 293L527 292z"/>
<path style="fill:#408ecb; stroke:none;" d="M343 293L344 294L343 293z"/>
<path style="fill:#8fd5fb; stroke:none;" d="M529 293L530 294L529 293M341 294L342 295L341 294z"/>
<path style="fill:#408ecb; stroke:none;" d="M530 294L531 295L530 294z"/>
<path style="fill:#8fd5fb; stroke:none;" d="M531 294L532 295L531 294M339 295L340 296L339 295z"/>
<path style="fill:#408ecb; stroke:none;" d="M532 295L533 296L532 295z"/>
<path style="fill:#8fd5fb; stroke:none;" d="M533 295L534 296L533 295M53 296L53 703C84.3627 689.486 114.529 668.298 144 650.989C153.142 645.62 172.04 639.219 177.972 630.39C180.551 626.552 179 618.447 179 614L179 571L179 424L179 384C179 379.636 180.403 372.217 177.972 368.39C172.378 359.58 152.081 352.444 143 347.281C113.556 330.54 84.2345 309.073 53 296M337 296L338 297L337 296z"/>
<path style="fill:#408ecb; stroke:none;" d="M338 296L339 297L338 296M534 296L535 297L534 296z"/>
<path style="fill:#8fd5fb; stroke:none;" d="M819 703L820 662L820 576L820 296C808.82 299.538 798.167 307.75 788 313.579C767.301 325.446 746.526 337.233 726 349.397C717.48 354.445 699.094 360.537 694.028 369.21C691.543 373.463 693 381.228 693 386L693 425L693 570L693 612C693 616.988 691.418 625.357 694.028 629.787C699.327 638.782 719.967 645.994 729 651.15C759.016 668.285 788.423 686.895 819 703M335 297L336 298L335 297z"/>
<path style="fill:#408ecb; stroke:none;" d="M336 297L337 298L336 297z"/>
<path style="fill:#8fd5fb; stroke:none;" d="M536 297L537 298L536 297z"/>
<path style="fill:#408ecb; stroke:none;" d="M334 298L335 299L334 298z"/>
<path style="fill:#8fd5fb; stroke:none;" d="M538 298L539 299L538 298M332 299L333 300L332 299z"/>
<path style="fill:#408ecb; stroke:none;" d="M539 299L540 300L539 299z"/>
<path style="fill:#8fd5fb; stroke:none;" d="M540 299L541 300L540 299M330 300L331 301L330 300z"/>
<path style="fill:#408ecb; stroke:none;" d="M541 300L542 301L541 300z"/>
<path style="fill:#8fd5fb; stroke:none;" d="M542 300L543 301L542 300M328 301L329 302L328 301z"/>
<path style="fill:#408ecb; stroke:none;" d="M329 301L330 302L329 301M543 301L544 302L543 301z"/>
<path style="fill:#8fd5fb; stroke:none;" d="M326 302L327 303L326 302z"/>
<path style="fill:#408ecb; stroke:none;" d="M327 302L328 303L327 302M545 302L546 303L545 302M325 303L326 304L325 303z"/>
<path style="fill:#8fd5fb; stroke:none;" d="M547 303L548 304L547 303z"/>
<path style="fill:#408ecb; stroke:none;" d="M323 304L324 305L323 304z"/>
<path style="fill:#8fd5fb; stroke:none;" d="M549 304L550 305L549 304M321 305L322 306L321 305z"/>
<path style="fill:#408ecb; stroke:none;" d="M550 305L551 306L550 305z"/>
<path style="fill:#8fd5fb; stroke:none;" d="M551 305L552 306L551 305M319 306L320 307L319 306z"/>
<path style="fill:#408ecb; stroke:none;" d="M552 306L553 307L552 306z"/>
<path style="fill:#8fd5fb; stroke:none;" d="M553 306L554 307L553 306M317 307L318 308L317 307z"/>
<path style="fill:#408ecb; stroke:none;" d="M318 307L319 308L318 307M554 307L555 308L554 307z"/>
<path style="fill:#8fd5fb; stroke:none;" d="M315 308L316 309L315 308z"/>
<path style="fill:#408ecb; stroke:none;" d="M316 308L317 309L316 308z"/>
<path style="fill:#8fd5fb; stroke:none;" d="M556 308L557 309L556 308z"/>
<path style="fill:#408ecb; stroke:none;" d="M314 309L315 310L314 309z"/>
<path style="fill:#8fd5fb; stroke:none;" d="M558 309L559 310L558 309M312 310L313 311L312 310z"/>
<path style="fill:#408ecb; stroke:none;" d="M559 310L560 311L559 310z"/>
<path style="fill:#8fd5fb; stroke:none;" d="M560 310L561 311L560 310M310 311L311 312L310 311z"/>
<path style="fill:#408ecb; stroke:none;" d="M561 311L562 312L561 311z"/>
<path style="fill:#8fd5fb; stroke:none;" d="M562 311L563 312L562 311M308 312L309 313L308 312z"/>
<path style="fill:#408ecb; stroke:none;" d="M309 312L310 313L309 312M563 312L564 313L563 312z"/>
<path style="fill:#8fd5fb; stroke:none;" d="M306 313L307 314L306 313z"/>
<path style="fill:#408ecb; stroke:none;" d="M307 313L308 314L307 313M565 313L566 314L565 313z"/>
<path style="fill:#8fd5fb; stroke:none;" d="M304 314L305 315L304 314z"/>
<path style="fill:#408ecb; stroke:none;" d="M305 314L306 315L305 314z"/>
<path style="fill:#8fd5fb; stroke:none;" d="M567 314L568 315L567 314z"/>
<path style="fill:#408ecb; stroke:none;" d="M303 315L304 316L303 315z"/>
<path style="fill:#8fd5fb; stroke:none;" d="M569 315L570 316L569 315M301 316L302 317L301 316z"/>
<path style="fill:#408ecb; stroke:none;" d="M570 316L571 317L570 316z"/>
<path style="fill:#8fd5fb; stroke:none;" d="M571 316L572 317L571 316M299 317L300 318L299 317z"/>
<path style="fill:#408ecb; stroke:none;" d="M572 317L573 318L572 317z"/>
<path style="fill:#8fd5fb; stroke:none;" d="M573 317L574 318L573 317M297 318L298 319L297 318z"/>
<path style="fill:#408ecb; stroke:none;" d="M298 318L299 319L298 318M574 318L575 319L574 318z"/>
<path style="fill:#8fd5fb; stroke:none;" d="M295 319L296 320L295 319z"/>
<path style="fill:#408ecb; stroke:none;" d="M296 319L297 320L296 319z"/>
<path style="fill:#8fd5fb; stroke:none;" d="M576 319L577 320L576 319z"/>
<path style="fill:#408ecb; stroke:none;" d="M294 320L295 321L294 320z"/>
<path style="fill:#8fd5fb; stroke:none;" d="M578 320L579 321L578 320z"/>
<path style="fill:#408ecb; stroke:none;" d="M292 321L293 322L292 321M579 321L580 322L579 321z"/>
<path style="fill:#8fd5fb; stroke:none;" d="M580 321L581 322L580 321M290 322L291 323L290 322z"/>
<path style="fill:#408ecb; stroke:none;" d="M581 322L582 323L581 322z"/>
<path style="fill:#8fd5fb; stroke:none;" d="M582 322L583 323L582 322M288 323L289 324L288 323z"/>
<path style="fill:#408ecb; stroke:none;" d="M289 323L290 324L289 323M583 323L584 324L583 323z"/>
<path style="fill:#8fd5fb; stroke:none;" d="M286 324L287 325L286 324z"/>
<path style="fill:#408ecb; stroke:none;" d="M287 324L288 325L287 324M585 324L586 325L585 324z"/>
<path style="fill:#8fd5fb; stroke:none;" d="M284 325L285 326L284 325z"/>
<path style="fill:#408ecb; stroke:none;" d="M285 325L286 326L285 325z"/>
<path style="fill:#8fd5fb; stroke:none;" d="M587 325L588 326L587 325z"/>
<path style="fill:#408ecb; stroke:none;" d="M283 326L284 327L283 326z"/>
<path style="fill:#8fd5fb; stroke:none;" d="M589 326L590 327L589 326M281 327L282 328L281 327z"/>
<path style="fill:#408ecb; stroke:none;" d="M590 327L591 328L590 327z"/>
<path style="fill:#8fd5fb; stroke:none;" d="M591 327L592 328L591 327M279 328L280 329L279 328z"/>
<path style="fill:#408ecb; stroke:none;" d="M592 328L593 329L592 328z"/>
<path style="fill:#8fd5fb; stroke:none;" d="M593 328L594 329L593 328M277 329L278 330L277 329z"/>
<path style="fill:#408ecb; stroke:none;" d="M278 329L279 330L278 329M594 329L595 330L594 329z"/>
<path style="fill:#8fd5fb; stroke:none;" d="M275 330L276 331L275 330z"/>
<path style="fill:#408ecb; stroke:none;" d="M276 330L277 331L276 330z"/>
<path style="fill:#8fd5fb; stroke:none;" d="M596 330L597 331L596 330z"/>
<path style="fill:#408ecb; stroke:none;" d="M274 331L275 332L274 331z"/>
<path style="fill:#8fd5fb; stroke:none;" d="M598 331L599 332L598 331z"/>
<path style="fill:#408ecb; stroke:none;" d="M272 332L273 333L272 332M599 332L600 333L599 332z"/>
<path style="fill:#8fd5fb; stroke:none;" d="M600 332L601 333L600 332M270 333L271 334L270 333z"/>
<path style="fill:#408ecb; stroke:none;" d="M601 333L602 334L601 333z"/>
<path style="fill:#8fd5fb; stroke:none;" d="M602 333L603 334L602 333M268 334L269 335L268 334z"/>
<path style="fill:#408ecb; stroke:none;" d="M603 334L604 335L603 334z"/>
<path style="fill:#8fd5fb; stroke:none;" d="M266 335L267 336L266 335z"/>
<path style="fill:#408ecb; stroke:none;" d="M267 335L268 336L267 335M605 335L606 336L605 335z"/>
<path style="fill:#8fd5fb; stroke:none;" d="M264 336L265 337L264 336z"/>
<path style="fill:#408ecb; stroke:none;" d="M265 336L266 337L265 336z"/>
<path style="fill:#8fd5fb; stroke:none;" d="M607 336L608 337L607 336z"/>
<path style="fill:#408ecb; stroke:none;" d="M263 337L264 338L263 337z"/>
<path style="fill:#8fd5fb; stroke:none;" d="M609 337L610 338L609 337M261 338L262 339L261 338z"/>
<path style="fill:#408ecb; stroke:none;" d="M610 338L611 339L610 338z"/>
<path style="fill:#8fd5fb; stroke:none;" d="M611 338L612 339L611 338M259 339L260 340L259 339z"/>
<path style="fill:#408ecb; stroke:none;" d="M612 339L613 340L612 339z"/>
<path style="fill:#8fd5fb; stroke:none;" d="M613 339L614 340L613 339M257 340L258 341L257 340z"/>
<path style="fill:#408ecb; stroke:none;" d="M258 340L259 341L258 340M614 340L615 341L614 340z"/>
<path style="fill:#8fd5fb; stroke:none;" d="M255 341L256 342L255 341z"/>
<path style="fill:#408ecb; stroke:none;" d="M256 341L257 342L256 341z"/>
<path style="fill:#8fd5fb; stroke:none;" d="M616 341L617 342L616 341z"/>
<path style="fill:#408ecb; stroke:none;" d="M254 342L255 343L254 342z"/>
<path style="fill:#8fd5fb; stroke:none;" d="M618 342L619 343L618 342z"/>
<path style="fill:#408ecb; stroke:none;" d="M252 343L253 344L252 343M619 343L620 344L619 343z"/>
<path style="fill:#8fd5fb; stroke:none;" d="M620 343L621 344L620 343M250 344L251 345L250 344z"/>
<path style="fill:#408ecb; stroke:none;" d="M621 344L622 345L621 344z"/>
<path style="fill:#8fd5fb; stroke:none;" d="M622 344L623 345L622 344M248 345L249 346L248 345z"/>
<path style="fill:#408ecb; stroke:none;" d="M623 345L624 346L623 345z"/>
<path style="fill:#8fd5fb; stroke:none;" d="M246 346L247 347L246 346z"/>
<path style="fill:#408ecb; stroke:none;" d="M247 346L248 347L247 346M625 346L626 347L625 346z"/>
<path style="fill:#8fd5fb; stroke:none;" d="M244 347L245 348L244 347z"/>
<path style="fill:#408ecb; stroke:none;" d="M245 347L246 348L245 347z"/>
<path style="fill:#8fd5fb; stroke:none;" d="M627 347L628 348L627 347z"/>
<path style="fill:#408ecb; stroke:none;" d="M243 348L244 349L243 348z"/>
<path style="fill:#8fd5fb; stroke:none;" d="M629 348L630 349L629 348M241 349L242 350L241 349z"/>
<path style="fill:#408ecb; stroke:none;" d="M630 349L631 350L630 349z"/>
<path style="fill:#8fd5fb; stroke:none;" d="M631 349L632 350L631 349M239 350L240 351L239 350z"/>
<path style="fill:#408ecb; stroke:none;" d="M632 350L633 351L632 350z"/>
<path style="fill:#8fd5fb; stroke:none;" d="M633 350L634 351L633 350M237 351L238 352L237 351z"/>
<path style="fill:#408ecb; stroke:none;" d="M238 351L239 352L238 351M634 351L635 352L634 351z"/>
<path style="fill:#8fd5fb; stroke:none;" d="M235 352L236 353L235 352z"/>
<path style="fill:#408ecb; stroke:none;" d="M236 352L237 353L236 352z"/>
<path style="fill:#8fd5fb; stroke:none;" d="M636 352L637 353L636 352z"/>
<path style="fill:#408ecb; stroke:none;" d="M234 353L235 354L234 353z"/>
<path style="fill:#8fd5fb; stroke:none;" d="M638 353L639 354L638 353z"/>
<path style="fill:#408ecb; stroke:none;" d="M232 354L233 355L232 354M639 354L640 355L639 354z"/>
<path style="fill:#8fd5fb; stroke:none;" d="M640 354L641 355L640 354M230 355L231 356L230 355z"/>
<path style="fill:#408ecb; stroke:none;" d="M641 355L642 356L641 355z"/>
<path style="fill:#8fd5fb; stroke:none;" d="M642 355L643 356L642 355M228 356L229 357L228 356z"/>
<path style="fill:#408ecb; stroke:none;" d="M643 356L644 357L643 356z"/>
<path style="fill:#8fd5fb; stroke:none;" d="M226 357L227 358L226 357z"/>
<path style="fill:#408ecb; stroke:none;" d="M227 357L228 358L227 357M645 357L646 358L645 357z"/>
<path style="fill:#8fd5fb; stroke:none;" d="M224 358L225 359L224 358z"/>
<path style="fill:#408ecb; stroke:none;" d="M225 358L226 359L225 358z"/>
<path style="fill:#8fd5fb; stroke:none;" d="M647 358L648 359L647 358z"/>
<path style="fill:#408ecb; stroke:none;" d="M224 359L225 360L224 359z"/>
<path style="fill:#8fd5fb; stroke:none;" d="M648 359L649 360L648 359M225 360L226 361L225 360z"/>
<path style="fill:#408ecb; stroke:none;" d="M226 360L227 361L226 360M646 360L647 361L646 360z"/>
<path style="fill:#8fd5fb; stroke:none;" d="M227 361L228 362L227 361z"/>
<path style="fill:#408ecb; stroke:none;" d="M644 361L645 362L644 361z"/>
<path style="fill:#8fd5fb; stroke:none;" d="M229 362L230 363L229 362z"/>
<path style="fill:#408ecb; stroke:none;" d="M642 362L643 363L642 362z"/>
<path style="fill:#8fd5fb; stroke:none;" d="M643 362L644 363L643 362z"/>
<path style="fill:#408ecb; stroke:none;" d="M231 363L232 364L231 363z"/>
<path style="fill:#8fd5fb; stroke:none;" d="M641 363L642 364L641 363M232 364L233 365L232 364z"/>
<path style="fill:#408ecb; stroke:none;" d="M233 364L234 365L233 364M639 364L640 365L639 364z"/>
<path style="fill:#8fd5fb; stroke:none;" d="M234 365L235 366L234 365z"/>
<path style="fill:#408ecb; stroke:none;" d="M637 365L638 366L637 365z"/>
<path style="fill:#8fd5fb; stroke:none;" d="M638 365L639 366L638 365z"/>
<path style="fill:#408ecb; stroke:none;" d="M236 366L237 367L236 366M635 366L636 367L635 366z"/>
<path style="fill:#8fd5fb; stroke:none;" d="M636 366L637 367L636 366z"/>
<path style="fill:#408ecb; stroke:none;" d="M238 367L239 368L238 367z"/>
<path style="fill:#8fd5fb; stroke:none;" d="M634 367L635 368L634 367M239 368L240 369L239 368z"/>
<path style="fill:#408ecb; stroke:none;" d="M240 368L241 369L240 368M632 368L633 369L632 368z"/>
<path style="fill:#8fd5fb; stroke:none;" d="M241 369L242 370L241 369z"/>
<path style="fill:#408ecb; stroke:none;" d="M630 369L631 370L630 369z"/>
<path style="fill:#8fd5fb; stroke:none;" d="M631 369L632 370L631 369z"/>
<path style="fill:#408ecb; stroke:none;" d="M243 370L244 371L243 370z"/>
<path style="fill:#8fd5fb; stroke:none;" d="M629 370L630 371L629 370M244 371L245 372L244 371z"/>
<path style="fill:#408ecb; stroke:none;" d="M245 371L246 372L245 371z"/>
<path style="fill:#8fd5fb; stroke:none;" d="M627 371L628 372L627 371M246 372L247 373L246 372z"/>
<path style="fill:#408ecb; stroke:none;" d="M247 372L248 373L247 372M625 372L626 373L625 372z"/>
<path style="fill:#8fd5fb; stroke:none;" d="M248 373L249 374L248 373z"/>
<path style="fill:#408ecb; stroke:none;" d="M623 373L624 374L623 373z"/>
<path style="fill:#8fd5fb; stroke:none;" d="M624 373L625 374L624 373z"/>
<path style="fill:#408ecb; stroke:none;" d="M250 374L251 375L250 374z"/>
<path style="fill:#8fd5fb; stroke:none;" d="M622 374L623 375L622 374M251 375L252 376L251 375z"/>
<path style="fill:#408ecb; stroke:none;" d="M252 375L253 376L252 375M620 375L621 376L620 375z"/>
<path style="fill:#8fd5fb; stroke:none;" d="M253 376L254 377L253 376z"/>
<path style="fill:#408ecb; stroke:none;" d="M618 376L619 377L618 376z"/>
<path style="fill:#8fd5fb; stroke:none;" d="M255 377L256 378L255 377z"/>
<path style="fill:#408ecb; stroke:none;" d="M616 377L617 378L616 377z"/>
<path style="fill:#8fd5fb; stroke:none;" d="M617 377L618 378L617 377z"/>
<path style="fill:#408ecb; stroke:none;" d="M257 378L258 379L257 378z"/>
<path style="fill:#8fd5fb; stroke:none;" d="M615 378L616 379L615 378M258 379L259 380L258 379z"/>
<path style="fill:#408ecb; stroke:none;" d="M259 379L260 380L259 379M613 379L614 380L613 379z"/>
<path style="fill:#8fd5fb; stroke:none;" d="M260 380L261 381L260 380z"/>
<path style="fill:#408ecb; stroke:none;" d="M611 380L612 381L611 380z"/>
<path style="fill:#8fd5fb; stroke:none;" d="M612 380L613 381L612 380z"/>
<path style="fill:#408ecb; stroke:none;" d="M262 381L263 382L262 381z"/>
<path style="fill:#8fd5fb; stroke:none;" d="M610 381L611 382L610 381z"/>
<path style="fill:#408ecb; stroke:none;" d="M264 382L265 383L264 382z"/>
<path style="fill:#8fd5fb; stroke:none;" d="M608 382L609 383L608 382M265 383L266 384L265 383z"/>
<path style="fill:#408ecb; stroke:none;" d="M266 383L267 384L266 383M606 383L607 384L606 383z"/>
<path style="fill:#8fd5fb; stroke:none;" d="M267 384L268 385L267 384z"/>
<path style="fill:#408ecb; stroke:none;" d="M604 384L605 385L604 384z"/>
<path style="fill:#8fd5fb; stroke:none;" d="M605 384L606 385L605 384z"/>
<path style="fill:#408ecb; stroke:none;" d="M269 385L270 386L269 385z"/>
<path style="fill:#8fd5fb; stroke:none;" d="M603 385L604 386L603 385M209 386L209 617L210 617L210 462C210 438.204 205.491 409.138 211 386L209 386M270 386L271 387L270 386z"/>
<path style="fill:#408ecb; stroke:none;" d="M271 386L272 387L271 386z"/>
<path style="fill:#8fd5fb; stroke:none;" d="M601 386L602 387L601 386z"/>
<path style="fill:#408ecb; stroke:none;" d="M662 386L663 387L662 386z"/>
<path style="fill:#1d79c1; stroke:none;" d="M210 387L210 550L210 596L210.603 615.61L224 624.424L263 645.86L373 706.309L421 732L421 573L421 528L420.397 509.379L406 499.579L366 476.576L268 419.989L210 387z"/>
<path style="fill:#408ecb; stroke:none;" d="M211 387L212 388L211 387z"/>
<path style="fill:#8fd5fb; stroke:none;" d="M212 387L213 388L212 387M272 387L273 388L272 387z"/>
<path style="fill:#408ecb; stroke:none;" d="M599 387L600 388L599 387z"/>
<path style="fill:#8fd5fb; stroke:none;" d="M660 387L661 388L660 387z"/>
<path style="fill:#1d79c1; stroke:none;" d="M452 732L504 703.861L607 647.255L647 625.306L662.397 615.61L663 596L663 550L663 387L613 415.15L506 476.85L467 499.397L452.603 509.213L452 529L452 574L452 732z"/>
<path style="fill:#408ecb; stroke:none;" d="M213 388L214 389L213 388z"/>
<path style="fill:#8fd5fb; stroke:none;" d="M274 388L275 389L274 388z"/>
<path style="fill:#408ecb; stroke:none;" d="M597 388L598 389L597 388z"/>
<path style="fill:#8fd5fb; stroke:none;" d="M598 388L599 389L598 388M658 388L659 389L658 388z"/>
<path style="fill:#408ecb; stroke:none;" d="M659 388L660 389L659 388z"/>
<path style="fill:#8fd5fb; stroke:none;" d="M215 389L216 390L215 389z"/>
<path style="fill:#408ecb; stroke:none;" d="M276 389L277 390L276 389z"/>
<path style="fill:#8fd5fb; stroke:none;" d="M596 389L597 390L596 389z"/>
<path style="fill:#408ecb; stroke:none;" d="M657 389L658 390L657 389z"/>
<path style="fill:#8fd5fb; stroke:none;" d="M217 390L218 391L217 390M277 390L278 391L277 390z"/>
<path style="fill:#408ecb; stroke:none;" d="M278 390L279 391L278 390M594 390L595 391L594 390z"/>
<path style="fill:#8fd5fb; stroke:none;" d="M655 390L656 391L655 390z"/>
<path style="fill:#408ecb; stroke:none;" d="M218 391L219 392L218 391z"/>
<path style="fill:#8fd5fb; stroke:none;" d="M219 391L220 392L219 391M279 391L280 392L279 391z"/>
<path style="fill:#408ecb; stroke:none;" d="M592 391L593 392L592 391z"/>
<path style="fill:#8fd5fb; stroke:none;" d="M653 391L654 392L653 391z"/>
<path style="fill:#408ecb; stroke:none;" d="M220 392L221 393L220 392M281 392L282 393L281 392M590 392L591 393L590 392z"/>
<path style="fill:#8fd5fb; stroke:none;" d="M591 392L592 393L591 392M651 392L652 393L651 392z"/>
<path style="fill:#408ecb; stroke:none;" d="M652 392L653 393L652 392z"/>
<path style="fill:#8fd5fb; stroke:none;" d="M222 393L223 394L222 393z"/>
<path style="fill:#408ecb; stroke:none;" d="M283 393L284 394L283 393z"/>
<path style="fill:#8fd5fb; stroke:none;" d="M589 393L590 394L589 393z"/>
<path style="fill:#408ecb; stroke:none;" d="M650 393L651 394L650 393M223 394L224 395L223 394z"/>
<path style="fill:#8fd5fb; stroke:none;" d="M224 394L225 395L224 394M284 394L285 395L284 394z"/>
<path style="fill:#408ecb; stroke:none;" d="M285 394L286 395L285 394M587 394L588 395L587 394z"/>
<path style="fill:#8fd5fb; stroke:none;" d="M648 394L649 395L648 394z"/>
<path style="fill:#408ecb; stroke:none;" d="M225 395L226 396L225 395z"/>
<path style="fill:#8fd5fb; stroke:none;" d="M286 395L287 396L286 395z"/>
<path style="fill:#408ecb; stroke:none;" d="M585 395L586 396L585 395z"/>
<path style="fill:#8fd5fb; stroke:none;" d="M586 395L587 396L586 395M646 395L647 396L646 395M227 396L228 397L227 396z"/>
<path style="fill:#408ecb; stroke:none;" d="M288 396L289 397L288 396z"/>
<path style="fill:#8fd5fb; stroke:none;" d="M584 396L585 397L584 396M644 396L645 397L644 396z"/>
<path style="fill:#408ecb; stroke:none;" d="M645 396L646 397L645 396z"/>
<path style="fill:#8fd5fb; stroke:none;" d="M229 397L230 398L229 397M289 397L290 398L289 397z"/>
<path style="fill:#408ecb; stroke:none;" d="M290 397L291 398L290 397z"/>
<path style="fill:#8fd5fb; stroke:none;" d="M582 397L583 398L582 397z"/>
<path style="fill:#408ecb; stroke:none;" d="M643 397L644 398L643 397M230 398L231 399L230 398z"/>
<path style="fill:#8fd5fb; stroke:none;" d="M231 398L232 399L231 398M291 398L292 399L291 398z"/>
<path style="fill:#408ecb; stroke:none;" d="M292 398L293 399L292 398M580 398L581 399L580 398z"/>
<path style="fill:#8fd5fb; stroke:none;" d="M641 398L642 399L641 398z"/>
<path style="fill:#408ecb; stroke:none;" d="M232 399L233 400L232 399z"/>
<path style="fill:#8fd5fb; stroke:none;" d="M293 399L294 400L293 399z"/>
<path style="fill:#408ecb; stroke:none;" d="M578 399L579 400L578 399z"/>
<path style="fill:#8fd5fb; stroke:none;" d="M579 399L580 400L579 399M639 399L640 400L639 399M234 400L235 401L234 400z"/>
<path style="fill:#408ecb; stroke:none;" d="M295 400L296 401L295 400z"/>
<path style="fill:#8fd5fb; stroke:none;" d="M577 400L578 401L577 400M637 400L638 401L637 400z"/>
<path style="fill:#408ecb; stroke:none;" d="M638 400L639 401L638 400z"/>
<path style="fill:#8fd5fb; stroke:none;" d="M236 401L237 402L236 401M296 401L297 402L296 401z"/>
<path style="fill:#408ecb; stroke:none;" d="M297 401L298 402L297 401M575 401L576 402L575 401M636 401L637 402L636 401M237 402L238 403L237 402z"/>
<path style="fill:#8fd5fb; stroke:none;" d="M238 402L239 403L238 402M298 402L299 403L298 402z"/>
<path style="fill:#408ecb; stroke:none;" d="M573 402L574 403L573 402z"/>
<path style="fill:#8fd5fb; stroke:none;" d="M634 402L635 403L634 402z"/>
<path style="fill:#408ecb; stroke:none;" d="M239 403L240 404L239 403z"/>
<path style="fill:#8fd5fb; stroke:none;" d="M300 403L301 404L300 403z"/>
<path style="fill:#408ecb; stroke:none;" d="M571 403L572 404L571 403z"/>
<path style="fill:#8fd5fb; stroke:none;" d="M572 403L573 404L572 403M632 403L633 404L632 403z"/>
<path style="fill:#408ecb; stroke:none;" d="M633 403L634 404L633 403z"/>
<path style="fill:#8fd5fb; stroke:none;" d="M241 404L242 405L241 404z"/>
<path style="fill:#408ecb; stroke:none;" d="M302 404L303 405L302 404z"/>
<path style="fill:#8fd5fb; stroke:none;" d="M570 404L571 405L570 404z"/>
<path style="fill:#408ecb; stroke:none;" d="M631 404L632 405L631 404M242 405L243 406L242 405z"/>
<path style="fill:#8fd5fb; stroke:none;" d="M243 405L244 406L243 405M303 405L304 406L303 405z"/>
<path style="fill:#408ecb; stroke:none;" d="M304 405L305 406L304 405M568 405L569 406L568 405z"/>
<path style="fill:#8fd5fb; stroke:none;" d="M629 405L630 406L629 405z"/>
<path style="fill:#408ecb; stroke:none;" d="M244 406L245 407L244 406z"/>
<path style="fill:#8fd5fb; stroke:none;" d="M245 406L246 407L245 406M305 406L306 407L305 406z"/>
<path style="fill:#408ecb; stroke:none;" d="M566 406L567 407L566 406z"/>
<path style="fill:#8fd5fb; stroke:none;" d="M567 406L568 407L567 406M627 406L628 407L627 406z"/>
<path style="fill:#408ecb; stroke:none;" d="M246 407L247 408L246 407M307 407L308 408L307 407M564 407L565 408L564 407z"/>
<path style="fill:#8fd5fb; stroke:none;" d="M565 407L566 408L565 407M625 407L626 408L625 407z"/>
<path style="fill:#408ecb; stroke:none;" d="M626 407L627 408L626 407z"/>
<path style="fill:#8fd5fb; stroke:none;" d="M248 408L249 409L248 408z"/>
<path style="fill:#408ecb; stroke:none;" d="M309 408L310 409L309 408z"/>
<path style="fill:#8fd5fb; stroke:none;" d="M563 408L564 409L563 408z"/>
<path style="fill:#408ecb; stroke:none;" d="M624 408L625 409L624 408M249 409L250 410L249 409z"/>
<path style="fill:#8fd5fb; stroke:none;" d="M250 409L251 410L250 409M310 409L311 410L310 409z"/>
<path style="fill:#408ecb; stroke:none;" d="M311 409L312 410L311 409M561 409L562 410L561 409z"/>
<path style="fill:#8fd5fb; stroke:none;" d="M622 409L623 410L622 409z"/>
<path style="fill:#408ecb; stroke:none;" d="M251 410L252 411L251 410z"/>
<path style="fill:#8fd5fb; stroke:none;" d="M312 410L313 411L312 410z"/>
<path style="fill:#408ecb; stroke:none;" d="M559 410L560 411L559 410z"/>
<path style="fill:#8fd5fb; stroke:none;" d="M560 410L561 411L560 410M620 410L621 411L620 410M253 411L254 412L253 411z"/>
<path style="fill:#408ecb; stroke:none;" d="M314 411L315 412L314 411z"/>
<path style="fill:#8fd5fb; stroke:none;" d="M558 411L559 412L558 411M618 411L619 412L618 411z"/>
<path style="fill:#408ecb; stroke:none;" d="M619 411L620 412L619 411z"/>
<path style="fill:#8fd5fb; stroke:none;" d="M255 412L256 413L255 412M315 412L316 413L315 412z"/>
<path style="fill:#408ecb; stroke:none;" d="M316 412L317 413L316 412z"/>
<path style="fill:#8fd5fb; stroke:none;" d="M556 412L557 413L556 412z"/>
<path style="fill:#408ecb; stroke:none;" d="M617 412L618 413L617 412M256 413L257 414L256 413z"/>
<path style="fill:#8fd5fb; stroke:none;" d="M257 413L258 414L257 413M317 413L318 414L317 413z"/>
<path style="fill:#408ecb; stroke:none;" d="M318 413L319 414L318 413M554 413L555 414L554 413z"/>
<path style="fill:#8fd5fb; stroke:none;" d="M615 413L616 414L615 413z"/>
<path style="fill:#408ecb; stroke:none;" d="M258 414L259 415L258 414z"/>
<path style="fill:#8fd5fb; stroke:none;" d="M319 414L320 415L319 414z"/>
<path style="fill:#408ecb; stroke:none;" d="M552 414L553 415L552 414z"/>
<path style="fill:#8fd5fb; stroke:none;" d="M553 414L554 415L553 414M613 414L614 415L613 414z"/>
<path style="fill:#408ecb; stroke:none;" d="M614 414L615 415L614 414z"/>
<path style="fill:#8fd5fb; stroke:none;" d="M260 415L261 416L260 415z"/>
<path style="fill:#408ecb; stroke:none;" d="M321 415L322 416L321 415z"/>
<path style="fill:#8fd5fb; stroke:none;" d="M551 415L552 416L551 415M611 415L612 416L611 415z"/>
<path style="fill:#408ecb; stroke:none;" d="M612 415L613 416L612 415z"/>
<path style="fill:#8fd5fb; stroke:none;" d="M262 416L263 417L262 416M322 416L323 417L322 416z"/>
<path style="fill:#408ecb; stroke:none;" d="M323 416L324 417L323 416M549 416L550 417L549 416M610 416L611 417L610 416M263 417L264 418L263 417z"/>
<path style="fill:#8fd5fb; stroke:none;" d="M264 417L265 418L264 417M324 417L325 418L324 417z"/>
<path style="fill:#408ecb; stroke:none;" d="M547 417L548 418L547 417z"/>
<path style="fill:#8fd5fb; stroke:none;" d="M608 417L609 418L608 417z"/>
<path style="fill:#408ecb; stroke:none;" d="M265 418L266 419L265 418z"/>
<path style="fill:#8fd5fb; stroke:none;" d="M326 418L327 419L326 418z"/>
<path style="fill:#408ecb; stroke:none;" d="M545 418L546 419L545 418z"/>
<path style="fill:#8fd5fb; stroke:none;" d="M546 418L547 419L546 418M606 418L607 419L606 418z"/>
<path style="fill:#408ecb; stroke:none;" d="M607 418L608 419L607 418z"/>
<path style="fill:#8fd5fb; stroke:none;" d="M267 419L268 420L267 419z"/>
<path style="fill:#408ecb; stroke:none;" d="M328 419L329 420L328 419z"/>
<path style="fill:#8fd5fb; stroke:none;" d="M544 419L545 420L544 419z"/>
<path style="fill:#408ecb; stroke:none;" d="M605 419L606 420L605 419M268 420L269 421L268 420z"/>
<path style="fill:#8fd5fb; stroke:none;" d="M269 420L270 421L269 420M329 420L330 421L329 420z"/>
<path style="fill:#408ecb; stroke:none;" d="M330 420L331 421L330 420M542 420L543 421L542 420z"/>
<path style="fill:#8fd5fb; stroke:none;" d="M603 420L604 421L603 420z"/>
<path style="fill:#408ecb; stroke:none;" d="M270 421L271 422L270 421z"/>
<path style="fill:#8fd5fb; stroke:none;" d="M271 421L272 422L271 421M331 421L332 422L331 421z"/>
<path style="fill:#408ecb; stroke:none;" d="M540 421L541 422L540 421z"/>
<path style="fill:#8fd5fb; stroke:none;" d="M541 421L542 422L541 421M601 421L602 422L601 421z"/>
<path style="fill:#408ecb; stroke:none;" d="M272 422L273 423L272 422M333 422L334 423L333 422M538 422L539 423L538 422z"/>
<path style="fill:#8fd5fb; stroke:none;" d="M539 422L540 423L539 422M599 422L600 423L599 422z"/>
<path style="fill:#408ecb; stroke:none;" d="M600 422L601 423L600 422z"/>
<path style="fill:#8fd5fb; stroke:none;" d="M274 423L275 424L274 423z"/>
<path style="fill:#408ecb; stroke:none;" d="M335 423L336 424L335 423z"/>
<path style="fill:#8fd5fb; stroke:none;" d="M537 423L538 424L537 423z"/>
<path style="fill:#408ecb; stroke:none;" d="M598 423L599 424L598 423M275 424L276 425L275 424z"/>
<path style="fill:#8fd5fb; stroke:none;" d="M276 424L277 425L276 424M336 424L337 425L336 424z"/>
<path style="fill:#408ecb; stroke:none;" d="M337 424L338 425L337 424M535 424L536 425L535 424z"/>
<path style="fill:#8fd5fb; stroke:none;" d="M596 424L597 425L596 424z"/>
<path style="fill:#408ecb; stroke:none;" d="M277 425L278 426L277 425z"/>
<path style="fill:#8fd5fb; stroke:none;" d="M338 425L339 426L338 425z"/>
<path style="fill:#408ecb; stroke:none;" d="M533 425L534 426L533 425z"/>
<path style="fill:#8fd5fb; stroke:none;" d="M534 425L535 426L534 425M594 425L595 426L594 425M279 426L280 427L279 426z"/>
<path style="fill:#408ecb; stroke:none;" d="M340 426L341 427L340 426z"/>
<path style="fill:#8fd5fb; stroke:none;" d="M532 426L533 427L532 426M592 426L593 427L592 426z"/>
<path style="fill:#408ecb; stroke:none;" d="M593 426L594 427L593 426z"/>
<path style="fill:#8fd5fb; stroke:none;" d="M281 427L282 428L281 427M341 427L342 428L341 427z"/>
<path style="fill:#408ecb; stroke:none;" d="M342 427L343 428L342 427z"/>
<path style="fill:#8fd5fb; stroke:none;" d="M530 427L531 428L530 427z"/>
<path style="fill:#408ecb; stroke:none;" d="M591 427L592 428L591 427M282 428L283 429L282 428z"/>
<path style="fill:#8fd5fb; stroke:none;" d="M283 428L284 429L283 428M343 428L344 429L343 428z"/>
<path style="fill:#408ecb; stroke:none;" d="M344 428L345 429L344 428M528 428L529 429L528 428z"/>
<path style="fill:#8fd5fb; stroke:none;" d="M589 428L590 429L589 428z"/>
<path style="fill:#408ecb; stroke:none;" d="M284 429L285 430L284 429z"/>
<path style="fill:#8fd5fb; stroke:none;" d="M345 429L346 430L345 429z"/>
<path style="fill:#408ecb; stroke:none;" d="M526 429L527 430L526 429z"/>
<path style="fill:#8fd5fb; stroke:none;" d="M527 429L528 430L527 429M587 429L588 430L587 429z"/>
<path style="fill:#408ecb; stroke:none;" d="M588 429L589 430L588 429z"/>
<path style="fill:#8fd5fb; stroke:none;" d="M286 430L287 431L286 430z"/>
<path style="fill:#408ecb; stroke:none;" d="M347 430L348 431L347 430z"/>
<path style="fill:#8fd5fb; stroke:none;" d="M525 430L526 431L525 430M585 430L586 431L585 430z"/>
<path style="fill:#408ecb; stroke:none;" d="M586 430L587 431L586 430z"/>
<path style="fill:#8fd5fb; stroke:none;" d="M288 431L289 432L288 431M348 431L349 432L348 431z"/>
<path style="fill:#408ecb; stroke:none;" d="M349 431L350 432L349 431M523 431L524 432L523 431M584 431L585 432L584 431M289 432L290 433L289 432z"/>
<path style="fill:#8fd5fb; stroke:none;" d="M290 432L291 433L290 432M350 432L351 433L350 432z"/>
<path style="fill:#408ecb; stroke:none;" d="M521 432L522 433L521 432z"/>
<path style="fill:#8fd5fb; stroke:none;" d="M582 432L583 433L582 432z"/>
<path style="fill:#408ecb; stroke:none;" d="M291 433L292 434L291 433z"/>
<path style="fill:#8fd5fb; stroke:none;" d="M352 433L353 434L352 433z"/>
<path style="fill:#408ecb; stroke:none;" d="M519 433L520 434L519 433z"/>
<path style="fill:#8fd5fb; stroke:none;" d="M520 433L521 434L520 433M580 433L581 434L580 433z"/>
<path style="fill:#408ecb; stroke:none;" d="M581 433L582 434L581 433z"/>
<path style="fill:#8fd5fb; stroke:none;" d="M293 434L294 435L293 434z"/>
<path style="fill:#408ecb; stroke:none;" d="M354 434L355 435L354 434z"/>
<path style="fill:#8fd5fb; stroke:none;" d="M518 434L519 435L518 434z"/>
<path style="fill:#408ecb; stroke:none;" d="M579 434L580 435L579 434M294 435L295 436L294 435z"/>
<path style="fill:#8fd5fb; stroke:none;" d="M295 435L296 436L295 435M355 435L356 436L355 435z"/>
<path style="fill:#408ecb; stroke:none;" d="M356 435L357 436L356 435M516 435L517 436L516 435z"/>
<path style="fill:#8fd5fb; stroke:none;" d="M577 435L578 436L577 435z"/>
<path style="fill:#408ecb; stroke:none;" d="M296 436L297 437L296 436z"/>
<path style="fill:#8fd5fb; stroke:none;" d="M297 436L298 437L297 436M357 436L358 437L357 436z"/>
<path style="fill:#408ecb; stroke:none;" d="M514 436L515 437L514 436z"/>
<path style="fill:#8fd5fb; stroke:none;" d="M515 436L516 437L515 436M575 436L576 437L575 436z"/>
<path style="fill:#408ecb; stroke:none;" d="M298 437L299 438L298 437M359 437L360 438L359 437M512 437L513 438L512 437z"/>
<path style="fill:#8fd5fb; stroke:none;" d="M513 437L514 438L513 437M573 437L574 438L573 437z"/>
<path style="fill:#408ecb; stroke:none;" d="M574 437L575 438L574 437z"/>
<path style="fill:#8fd5fb; stroke:none;" d="M300 438L301 439L300 438z"/>
<path style="fill:#408ecb; stroke:none;" d="M361 438L362 439L361 438z"/>
<path style="fill:#8fd5fb; stroke:none;" d="M511 438L512 439L511 438z"/>
<path style="fill:#408ecb; stroke:none;" d="M572 438L573 439L572 438M301 439L302 440L301 439z"/>
<path style="fill:#8fd5fb; stroke:none;" d="M302 439L303 440L302 439M362 439L363 440L362 439z"/>
<path style="fill:#408ecb; stroke:none;" d="M363 439L364 440L363 439M509 439L510 440L509 439z"/>
<path style="fill:#8fd5fb; stroke:none;" d="M570 439L571 440L570 439z"/>
<path style="fill:#408ecb; stroke:none;" d="M303 440L304 441L303 440z"/>
<path style="fill:#8fd5fb; stroke:none;" d="M364 440L365 441L364 440z"/>
<path style="fill:#408ecb; stroke:none;" d="M507 440L508 441L507 440z"/>
<path style="fill:#8fd5fb; stroke:none;" d="M508 440L509 441L508 440M568 440L569 441L568 440M305 441L306 442L305 441z"/>
<path style="fill:#408ecb; stroke:none;" d="M366 441L367 442L366 441z"/>
<path style="fill:#8fd5fb; stroke:none;" d="M506 441L507 442L506 441M566 441L567 442L566 441z"/>
<path style="fill:#408ecb; stroke:none;" d="M567 441L568 442L567 441z"/>
<path style="fill:#8fd5fb; stroke:none;" d="M307 442L308 443L307 442M367 442L368 443L367 442z"/>
<path style="fill:#408ecb; stroke:none;" d="M368 442L369 443L368 442z"/>
<path style="fill:#8fd5fb; stroke:none;" d="M504 442L505 443L504 442z"/>
<path style="fill:#408ecb; stroke:none;" d="M565 442L566 443L565 442M308 443L309 444L308 443z"/>
<path style="fill:#8fd5fb; stroke:none;" d="M309 443L310 444L309 443M369 443L370 444L369 443z"/>
<path style="fill:#408ecb; stroke:none;" d="M502 443L503 444L502 443z"/>
<path style="fill:#8fd5fb; stroke:none;" d="M563 443L564 444L563 443z"/>
<path style="fill:#408ecb; stroke:none;" d="M310 444L311 445L310 444z"/>
<path style="fill:#8fd5fb; stroke:none;" d="M371 444L372 445L371 444z"/>
<path style="fill:#408ecb; stroke:none;" d="M500 444L501 445L500 444z"/>
<path style="fill:#8fd5fb; stroke:none;" d="M501 444L502 445L501 444M561 444L562 445L561 444z"/>
<path style="fill:#408ecb; stroke:none;" d="M562 444L563 445L562 444z"/>
<path style="fill:#8fd5fb; stroke:none;" d="M312 445L313 446L312 445z"/>
<path style="fill:#408ecb; stroke:none;" d="M373 445L374 446L373 445z"/>
<path style="fill:#8fd5fb; stroke:none;" d="M499 445L500 446L499 445M559 445L560 446L559 445z"/>
<path style="fill:#408ecb; stroke:none;" d="M560 445L561 446L560 445z"/>
<path style="fill:#8fd5fb; stroke:none;" d="M314 446L315 447L314 446M374 446L375 447L374 446z"/>
<path style="fill:#408ecb; stroke:none;" d="M375 446L376 447L375 446M497 446L498 447L497 446M558 446L559 447L558 446M315 447L316 448L315 447z"/>
<path style="fill:#8fd5fb; stroke:none;" d="M316 447L317 448L316 447M376 447L377 448L376 447z"/>
<path style="fill:#408ecb; stroke:none;" d="M495 447L496 448L495 447z"/>
<path style="fill:#8fd5fb; stroke:none;" d="M556 447L557 448L556 447z"/>
<path style="fill:#408ecb; stroke:none;" d="M317 448L318 449L317 448z"/>
<path style="fill:#8fd5fb; stroke:none;" d="M378 448L379 449L378 448z"/>
<path style="fill:#408ecb; stroke:none;" d="M493 448L494 449L493 448z"/>
<path style="fill:#8fd5fb; stroke:none;" d="M494 448L495 449L494 448M554 448L555 449L554 448z"/>
<path style="fill:#408ecb; stroke:none;" d="M555 448L556 449L555 448z"/>
<path style="fill:#8fd5fb; stroke:none;" d="M319 449L320 450L319 449z"/>
<path style="fill:#408ecb; stroke:none;" d="M380 449L381 450L380 449z"/>
<path style="fill:#8fd5fb; stroke:none;" d="M492 449L493 450L492 449z"/>
<path style="fill:#408ecb; stroke:none;" d="M553 449L554 450L553 449M320 450L321 451L320 450z"/>
<path style="fill:#8fd5fb; stroke:none;" d="M321 450L322 451L321 450M381 450L382 451L381 450z"/>
<path style="fill:#408ecb; stroke:none;" d="M382 450L383 451L382 450M490 450L491 451L490 450z"/>
<path style="fill:#8fd5fb; stroke:none;" d="M551 450L552 451L551 450z"/>
<path style="fill:#408ecb; stroke:none;" d="M322 451L323 452L322 451z"/>
<path style="fill:#8fd5fb; stroke:none;" d="M383 451L384 452L383 451z"/>
<path style="fill:#408ecb; stroke:none;" d="M488 451L489 452L488 451z"/>
<path style="fill:#8fd5fb; stroke:none;" d="M489 451L490 452L489 451M549 451L550 452L549 451z"/>
<path style="fill:#408ecb; stroke:none;" d="M324 452L325 453L324 452M385 452L386 453L385 452z"/>
<path style="fill:#8fd5fb; stroke:none;" d="M487 452L488 453L487 452M547 452L548 453L547 452z"/>
<path style="fill:#408ecb; stroke:none;" d="M548 452L549 453L548 452z"/>
<path style="fill:#8fd5fb; stroke:none;" d="M326 453L327 454L326 453z"/>
<path style="fill:#408ecb; stroke:none;" d="M387 453L388 454L387 453z"/>
<path style="fill:#8fd5fb; stroke:none;" d="M485 453L486 454L485 453z"/>
<path style="fill:#408ecb; stroke:none;" d="M546 453L547 454L546 453M327 454L328 455L327 454z"/>
<path style="fill:#8fd5fb; stroke:none;" d="M328 454L329 455L328 454M388 454L389 455L388 454z"/>
<path style="fill:#408ecb; stroke:none;" d="M389 454L390 455L389 454M483 454L484 455L483 454z"/>
<path style="fill:#8fd5fb; stroke:none;" d="M544 454L545 455L544 454z"/>
<path style="fill:#408ecb; stroke:none;" d="M329 455L330 456L329 455z"/>
<path style="fill:#8fd5fb; stroke:none;" d="M390 455L391 456L390 455z"/>
<path style="fill:#408ecb; stroke:none;" d="M481 455L482 456L481 455z"/>
<path style="fill:#8fd5fb; stroke:none;" d="M482 455L483 456L482 455M542 455L543 456L542 455M331 456L332 457L331 456z"/>
<path style="fill:#408ecb; stroke:none;" d="M392 456L393 457L392 456z"/>
<path style="fill:#8fd5fb; stroke:none;" d="M480 456L481 457L480 456M540 456L541 457L540 456z"/>
<path style="fill:#408ecb; stroke:none;" d="M541 456L542 457L541 456z"/>
<path style="fill:#8fd5fb; stroke:none;" d="M333 457L334 458L333 457M393 457L394 458L393 457z"/>
<path style="fill:#408ecb; stroke:none;" d="M394 457L395 458L394 457z"/>
<path style="fill:#8fd5fb; stroke:none;" d="M478 457L479 458L478 457z"/>
<path style="fill:#408ecb; stroke:none;" d="M539 457L540 458L539 457M334 458L335 459L334 458z"/>
<path style="fill:#8fd5fb; stroke:none;" d="M335 458L336 459L335 458M395 458L396 459L395 458z"/>
<path style="fill:#408ecb; stroke:none;" d="M476 458L477 459L476 458z"/>
<path style="fill:#8fd5fb; stroke:none;" d="M537 458L538 459L537 458z"/>
<path style="fill:#408ecb; stroke:none;" d="M336 459L337 460L336 459z"/>
<path style="fill:#8fd5fb; stroke:none;" d="M397 459L398 460L397 459z"/>
<path style="fill:#408ecb; stroke:none;" d="M474 459L475 460L474 459z"/>
<path style="fill:#8fd5fb; stroke:none;" d="M475 459L476 460L475 459M535 459L536 460L535 459z"/>
<path style="fill:#408ecb; stroke:none;" d="M536 459L537 460L536 459z"/>
<path style="fill:#8fd5fb; stroke:none;" d="M338 460L339 461L338 460z"/>
<path style="fill:#408ecb; stroke:none;" d="M399 460L400 461L399 460z"/>
<path style="fill:#8fd5fb; stroke:none;" d="M473 460L474 461L473 460z"/>
<path style="fill:#408ecb; stroke:none;" d="M534 460L535 461L534 460M339 461L340 462L339 461z"/>
<path style="fill:#8fd5fb; stroke:none;" d="M340 461L341 462L340 461M400 461L401 462L400 461z"/>
<path style="fill:#408ecb; stroke:none;" d="M401 461L402 462L401 461M471 461L472 462L471 461M532 461L533 462L532 461M341 462L342 463L341 462z"/>
<path style="fill:#8fd5fb; stroke:none;" d="M342 462L343 463L342 462M402 462L403 463L402 462z"/>
<path style="fill:#408ecb; stroke:none;" d="M469 462L470 463L469 462z"/>
<path style="fill:#8fd5fb; stroke:none;" d="M470 462L471 463L470 462M530 462L531 463L530 462z"/>
<path style="fill:#408ecb; stroke:none;" d="M343 463L344 464L343 463z"/>
<path style="fill:#8fd5fb; stroke:none;" d="M404 463L405 464L404 463z"/>
<path style="fill:#408ecb; stroke:none;" d="M467 463L468 464L467 463z"/>
<path style="fill:#8fd5fb; stroke:none;" d="M468 463L469 464L468 463M528 463L529 464L528 463z"/>
<path style="fill:#408ecb; stroke:none;" d="M529 463L530 464L529 463z"/>
<path style="fill:#8fd5fb; stroke:none;" d="M345 464L346 465L345 464z"/>
<path style="fill:#408ecb; stroke:none;" d="M406 464L407 465L406 464z"/>
<path style="fill:#8fd5fb; stroke:none;" d="M466 464L467 465L466 464z"/>
<path style="fill:#408ecb; stroke:none;" d="M527 464L528 465L527 464M346 465L347 466L346 465z"/>
<path style="fill:#8fd5fb; stroke:none;" d="M347 465L348 466L347 465M407 465L408 466L407 465z"/>
<path style="fill:#408ecb; stroke:none;" d="M408 465L409 466L408 465M464 465L465 466L464 465z"/>
<path style="fill:#8fd5fb; stroke:none;" d="M525 465L526 466L525 465z"/>
<path style="fill:#408ecb; stroke:none;" d="M348 466L349 467L348 466z"/>
<path style="fill:#8fd5fb; stroke:none;" d="M409 466L410 467L409 466z"/>
<path style="fill:#408ecb; stroke:none;" d="M462 466L463 467L462 466z"/>
<path style="fill:#8fd5fb; stroke:none;" d="M463 466L464 467L463 466M523 466L524 467L523 466z"/>
<path style="fill:#408ecb; stroke:none;" d="M350 467L351 468L350 467M411 467L412 468L411 467z"/>
<path style="fill:#8fd5fb; stroke:none;" d="M461 467L462 468L461 467M521 467L522 468L521 467z"/>
<path style="fill:#408ecb; stroke:none;" d="M522 467L523 468L522 467z"/>
<path style="fill:#8fd5fb; stroke:none;" d="M352 468L353 469L352 468M412 468L413 469L412 468z"/>
<path style="fill:#408ecb; stroke:none;" d="M413 468L414 469L413 468z"/>
<path style="fill:#8fd5fb; stroke:none;" d="M459 468L460 469L459 468z"/>
<path style="fill:#408ecb; stroke:none;" d="M520 468L521 469L520 468M353 469L354 470L353 469z"/>
<path style="fill:#8fd5fb; stroke:none;" d="M354 469L355 470L354 469M414 469L415 470L414 469z"/>
<path style="fill:#408ecb; stroke:none;" d="M415 469L416 470L415 469M457 469L458 470L457 469z"/>
<path style="fill:#8fd5fb; stroke:none;" d="M518 469L519 470L518 469z"/>
<path style="fill:#408ecb; stroke:none;" d="M355 470L356 471L355 470z"/>
<path style="fill:#8fd5fb; stroke:none;" d="M416 470L417 471L416 470z"/>
<path style="fill:#408ecb; stroke:none;" d="M455 470L456 471L455 470z"/>
<path style="fill:#8fd5fb; stroke:none;" d="M456 470L457 471L456 470M516 470L517 471L516 470z"/>
<path style="fill:#408ecb; stroke:none;" d="M517 470L518 471L517 470z"/>
<path style="fill:#8fd5fb; stroke:none;" d="M357 471L358 472L357 471z"/>
<path style="fill:#408ecb; stroke:none;" d="M418 471L419 472L418 471z"/>
<path style="fill:#8fd5fb; stroke:none;" d="M454 471L455 472L454 471M514 471L515 472L514 471z"/>
<path style="fill:#408ecb; stroke:none;" d="M515 471L516 472L515 471z"/>
<path style="fill:#8fd5fb; stroke:none;" d="M359 472L360 473L359 472M419 472L420 473L419 472z"/>
<path style="fill:#408ecb; stroke:none;" d="M420 472L421 473L420 472z"/>
<path style="fill:#8fd5fb; stroke:none;" d="M452 472L453 473L452 472z"/>
<path style="fill:#408ecb; stroke:none;" d="M513 472L514 473L513 472M360 473L361 474L360 473z"/>
<path style="fill:#8fd5fb; stroke:none;" d="M361 473L362 474L361 473M421 473L422 474L421 473z"/>
<path style="fill:#408ecb; stroke:none;" d="M450 473L451 474L450 473z"/>
<path style="fill:#8fd5fb; stroke:none;" d="M511 473L512 474L511 473z"/>
<path style="fill:#408ecb; stroke:none;" d="M362 474L363 475L362 474z"/>
<path style="fill:#8fd5fb; stroke:none;" d="M423 474L424 475L423 474z"/>
<path style="fill:#408ecb; stroke:none;" d="M448 474L449 475L448 474z"/>
<path style="fill:#8fd5fb; stroke:none;" d="M449 474L450 475L449 474M509 474L510 475L509 474z"/>
<path style="fill:#408ecb; stroke:none;" d="M510 474L511 475L510 474z"/>
<path style="fill:#8fd5fb; stroke:none;" d="M364 475L365 476L364 475z"/>
<path style="fill:#408ecb; stroke:none;" d="M425 475L426 476L425 475z"/>
<path style="fill:#8fd5fb; stroke:none;" d="M447 475L448 476L447 475z"/>
<path style="fill:#408ecb; stroke:none;" d="M508 475L509 476L508 475M365 476L366 477L365 476z"/>
<path style="fill:#8fd5fb; stroke:none;" d="M366 476L367 477L366 476M426 476L427 477L426 476z"/>
<path style="fill:#408ecb; stroke:none;" d="M427 476L428 477L427 476M445 476L446 477L445 476z"/>
<path style="fill:#8fd5fb; stroke:none;" d="M506 476L507 477L506 476z"/>
<path style="fill:#408ecb; stroke:none;" d="M367 477L368 478L367 477z"/>
<path style="fill:#8fd5fb; stroke:none;" d="M368 477L369 478L368 477M428 477L429 478L428 477z"/>
<path style="fill:#408ecb; stroke:none;" d="M443 477L444 478L443 477z"/>
<path style="fill:#8fd5fb; stroke:none;" d="M444 477L445 478L444 477M504 477L505 478L504 477z"/>
<path style="fill:#408ecb; stroke:none;" d="M369 478L370 479L369 478z"/>
<path style="fill:#8fd5fb; stroke:none;" d="M430 478L431 479L430 478z"/>
<path style="fill:#408ecb; stroke:none;" d="M441 478L442 479L441 478z"/>
<path style="fill:#8fd5fb; stroke:none;" d="M442 478L443 479L442 478M502 478L503 479L502 478z"/>
<path style="fill:#408ecb; stroke:none;" d="M503 478L504 479L503 478z"/>
<path style="fill:#8fd5fb; stroke:none;" d="M371 479L372 480L371 479z"/>
<path style="fill:#408ecb; stroke:none;" d="M432 479L433 480L432 479z"/>
<path style="fill:#8fd5fb; stroke:none;" d="M440 479L441 480L440 479z"/>
<path style="fill:#408ecb; stroke:none;" d="M501 479L502 480L501 479M372 480L373 481L372 480z"/>
<path style="fill:#8fd5fb; stroke:none;" d="M373 480L374 481L373 480M433 480L434 481L433 480z"/>
<path style="fill:#408ecb; stroke:none;" d="M434 480L435 481L434 480M438 480L439 481L438 480z"/>
<path style="fill:#8fd5fb; stroke:none;" d="M499 480L500 481L499 480z"/>
<path style="fill:#408ecb; stroke:none;" d="M374 481L375 482L374 481z"/>
<path style="fill:#8fd5fb; stroke:none;" d="M435 481L436 482L435 481z"/>
<path style="fill:#408ecb; stroke:none;" d="M436 481L437 482L436 481z"/>
<path style="fill:#8fd5fb; stroke:none;" d="M437 481L438 482L437 481M497 481L498 482L497 481M376 482L377 483L376 482M495 482L496 483L495 482z"/>
<path style="fill:#408ecb; stroke:none;" d="M496 482L497 483L496 482z"/>
<path style="fill:#8fd5fb; stroke:none;" d="M378 483L379 484L378 483z"/>
<path style="fill:#408ecb; stroke:none;" d="M494 483L495 484L494 483M379 484L380 485L379 484z"/>
<path style="fill:#8fd5fb; stroke:none;" d="M380 484L381 485L380 484M492 484L493 485L492 484z"/>
<path style="fill:#408ecb; stroke:none;" d="M381 485L382 486L381 485z"/>
<path style="fill:#8fd5fb; stroke:none;" d="M490 485L491 486L490 485z"/>
<path style="fill:#408ecb; stroke:none;" d="M491 485L492 486L491 485z"/>
<path style="fill:#8fd5fb; stroke:none;" d="M383 486L384 487L383 486M488 486L489 487L488 486z"/>
<path style="fill:#408ecb; stroke:none;" d="M489 486L490 487L489 486z"/>
<path style="fill:#8fd5fb; stroke:none;" d="M385 487L386 488L385 487z"/>
<path style="fill:#408ecb; stroke:none;" d="M487 487L488 488L487 487M386 488L387 489L386 488z"/>
<path style="fill:#8fd5fb; stroke:none;" d="M387 488L388 489L387 488M485 488L486 489L485 488z"/>
<path style="fill:#408ecb; stroke:none;" d="M388 489L389 490L388 489z"/>
<path style="fill:#8fd5fb; stroke:none;" d="M483 489L484 490L483 489z"/>
<path style="fill:#408ecb; stroke:none;" d="M484 489L485 490L484 489z"/>
<path style="fill:#8fd5fb; stroke:none;" d="M390 490L391 491L390 490z"/>
<path style="fill:#408ecb; stroke:none;" d="M482 490L483 491L482 490M391 491L392 492L391 491z"/>
<path style="fill:#8fd5fb; stroke:none;" d="M392 491L393 492L392 491M480 491L481 492L480 491z"/>
<path style="fill:#408ecb; stroke:none;" d="M393 492L394 493L393 492z"/>
<path style="fill:#8fd5fb; stroke:none;" d="M394 492L395 493L394 492M478 492L479 493L478 492z"/>
<path style="fill:#408ecb; stroke:none;" d="M395 493L396 494L395 493z"/>
<path style="fill:#8fd5fb; stroke:none;" d="M476 493L477 494L476 493z"/>
<path style="fill:#408ecb; stroke:none;" d="M477 493L478 494L477 493z"/>
<path style="fill:#8fd5fb; stroke:none;" d="M397 494L398 495L397 494z"/>
<path style="fill:#408ecb; stroke:none;" d="M475 494L476 495L475 494M398 495L399 496L398 495z"/>
<path style="fill:#8fd5fb; stroke:none;" d="M399 495L400 496L399 495M473 495L474 496L473 495z"/>
<path style="fill:#408ecb; stroke:none;" d="M400 496L401 497L400 496z"/>
<path style="fill:#8fd5fb; stroke:none;" d="M471 496L472 497L471 496M402 497L403 498L402 497M469 497L470 498L469 497z"/>
<path style="fill:#408ecb; stroke:none;" d="M470 497L471 498L470 497z"/>
<path style="fill:#8fd5fb; stroke:none;" d="M404 498L405 499L404 498z"/>
<path style="fill:#408ecb; stroke:none;" d="M468 498L469 499L468 498M405 499L406 500L405 499z"/>
<path style="fill:#8fd5fb; stroke:none;" d="M406 499L407 500L406 499M466 499L467 500L466 499z"/>
<path style="fill:#408ecb; stroke:none;" d="M407 500L408 501L407 500z"/>
<path style="fill:#8fd5fb; stroke:none;" d="M464 500L465 501L464 500z"/>
<path style="fill:#408ecb; stroke:none;" d="M465 500L466 501L465 500z"/>
<path style="fill:#8fd5fb; stroke:none;" d="M409 501L410 502L409 501M462 501L463 502L462 501z"/>
<path style="fill:#408ecb; stroke:none;" d="M463 501L464 502L463 501z"/>
<path style="fill:#8fd5fb; stroke:none;" d="M411 502L412 503L411 502z"/>
<path style="fill:#408ecb; stroke:none;" d="M461 502L462 503L461 502M412 503L413 504L412 503z"/>
<path style="fill:#8fd5fb; stroke:none;" d="M413 503L414 504L413 503M459 503L460 504L459 503z"/>
<path style="fill:#408ecb; stroke:none;" d="M414 504L415 505L414 504z"/>
<path style="fill:#8fd5fb; stroke:none;" d="M457 504L458 505L457 504z"/>
<path style="fill:#408ecb; stroke:none;" d="M458 504L459 505L458 504z"/>
<path style="fill:#8fd5fb; stroke:none;" d="M416 505L417 506L416 505z"/>
<path style="fill:#408ecb; stroke:none;" d="M456 505L457 506L456 505M417 506L418 507L417 506z"/>
<path style="fill:#8fd5fb; stroke:none;" d="M418 506L419 507L418 506M454 506L455 507L454 506z"/>
<path style="fill:#408ecb; stroke:none;" d="M419 507L420 508L419 507z"/>
<path style="fill:#8fd5fb; stroke:none;" d="M420 507L421 508L420 507M452 507L453 508L452 507M451 508L451 677L451 718L453 733C448.898 715.771 452 694.698 452 677L452 566L452 527C452 521.113 453.292 513.463 451 508z"/>
<path style="fill:#408ecb; stroke:none;" d="M211 617L212 618L211 617z"/>
<path style="fill:#8fd5fb; stroke:none;" d="M661 617L662 618L661 617M212 618L213 619L212 618z"/>
<path style="fill:#408ecb; stroke:none;" d="M213 618L214 619L213 618M659 618L660 619L659 618z"/>
<path style="fill:#8fd5fb; stroke:none;" d="M214 619L215 620L214 619z"/>
<path style="fill:#408ecb; stroke:none;" d="M215 619L216 620L215 619M657 619L658 620L657 619z"/>
<path style="fill:#8fd5fb; stroke:none;" d="M216 620L217 621L216 620z"/>
<path style="fill:#408ecb; stroke:none;" d="M655 620L656 621L655 620z"/>
<path style="fill:#8fd5fb; stroke:none;" d="M656 620L657 621L656 620M218 621L219 622L218 621z"/>
<path style="fill:#408ecb; stroke:none;" d="M653 621L654 622L653 621z"/>
<path style="fill:#8fd5fb; stroke:none;" d="M654 621L655 622L654 621z"/>
<path style="fill:#408ecb; stroke:none;" d="M220 622L221 623L220 622z"/>
<path style="fill:#8fd5fb; stroke:none;" d="M652 622L653 623L652 622M221 623L222 624L221 623z"/>
<path style="fill:#408ecb; stroke:none;" d="M222 623L223 624L222 623z"/>
<path style="fill:#8fd5fb; stroke:none;" d="M650 623L651 624L650 623M223 624L224 625L223 624z"/>
<path style="fill:#408ecb; stroke:none;" d="M224 624L225 625L224 624M648 624L649 625L648 624z"/>
<path style="fill:#8fd5fb; stroke:none;" d="M225 625L226 626L225 625z"/>
<path style="fill:#408ecb; stroke:none;" d="M646 625L647 626L646 625z"/>
<path style="fill:#8fd5fb; stroke:none;" d="M647 625L648 626L647 625M227 626L228 627L227 626z"/>
<path style="fill:#408ecb; stroke:none;" d="M644 626L645 627L644 626z"/>
<path style="fill:#8fd5fb; stroke:none;" d="M645 626L646 627L645 626z"/>
<path style="fill:#408ecb; stroke:none;" d="M229 627L230 628L229 627z"/>
<path style="fill:#8fd5fb; stroke:none;" d="M643 627L644 628L643 627z"/>
<path style="fill:#408ecb; stroke:none;" d="M231 628L232 629L231 628z"/>
<path style="fill:#8fd5fb; stroke:none;" d="M641 628L642 629L641 628M232 629L233 630L232 629z"/>
<path style="fill:#408ecb; stroke:none;" d="M233 629L234 630L233 629M639 629L640 630L639 629z"/>
<path style="fill:#8fd5fb; stroke:none;" d="M234 630L235 631L234 630z"/>
<path style="fill:#408ecb; stroke:none;" d="M235 630L236 631L235 630M637 630L638 631L637 630z"/>
<path style="fill:#8fd5fb; stroke:none;" d="M236 631L237 632L236 631z"/>
<path style="fill:#408ecb; stroke:none;" d="M635 631L636 632L635 631z"/>
<path style="fill:#8fd5fb; stroke:none;" d="M636 631L637 632L636 631M238 632L239 633L238 632z"/>
<path style="fill:#408ecb; stroke:none;" d="M633 632L634 633L633 632z"/>
<path style="fill:#8fd5fb; stroke:none;" d="M634 632L635 633L634 632z"/>
<path style="fill:#408ecb; stroke:none;" d="M240 633L241 634L240 633z"/>
<path style="fill:#8fd5fb; stroke:none;" d="M632 633L633 634L632 633M241 634L242 635L241 634z"/>
<path style="fill:#408ecb; stroke:none;" d="M242 634L243 635L242 634z"/>
<path style="fill:#8fd5fb; stroke:none;" d="M630 634L631 635L630 634M243 635L244 636L243 635z"/>
<path style="fill:#408ecb; stroke:none;" d="M244 635L245 636L244 635M628 635L629 636L628 635z"/>
<path style="fill:#8fd5fb; stroke:none;" d="M245 636L246 637L245 636z"/>
<path style="fill:#408ecb; stroke:none;" d="M626 636L627 637L626 636z"/>
<path style="fill:#8fd5fb; stroke:none;" d="M627 636L628 637L627 636M247 637L248 638L247 637z"/>
<path style="fill:#408ecb; stroke:none;" d="M624 637L625 638L624 637z"/>
<path style="fill:#8fd5fb; stroke:none;" d="M625 637L626 638L625 637z"/>
<path style="fill:#408ecb; stroke:none;" d="M249 638L250 639L249 638M622 638L623 639L622 638z"/>
<path style="fill:#8fd5fb; stroke:none;" d="M623 638L624 639L623 638z"/>
<path style="fill:#408ecb; stroke:none;" d="M251 639L252 640L251 639z"/>
<path style="fill:#8fd5fb; stroke:none;" d="M621 639L622 640L621 639M252 640L253 641L252 640z"/>
<path style="fill:#408ecb; stroke:none;" d="M253 640L254 641L253 640M619 640L620 641L619 640z"/>
<path style="fill:#8fd5fb; stroke:none;" d="M254 641L255 642L254 641z"/>
<path style="fill:#408ecb; stroke:none;" d="M255 641L256 642L255 641M617 641L618 642L617 641z"/>
<path style="fill:#8fd5fb; stroke:none;" d="M256 642L257 643L256 642z"/>
<path style="fill:#408ecb; stroke:none;" d="M615 642L616 643L615 642z"/>
<path style="fill:#8fd5fb; stroke:none;" d="M616 642L617 643L616 642M258 643L259 644L258 643z"/>
<path style="fill:#408ecb; stroke:none;" d="M613 643L614 644L613 643z"/>
<path style="fill:#8fd5fb; stroke:none;" d="M614 643L615 644L614 643z"/>
<path style="fill:#408ecb; stroke:none;" d="M260 644L261 645L260 644z"/>
<path style="fill:#8fd5fb; stroke:none;" d="M612 644L613 645L612 644M261 645L262 646L261 645z"/>
<path style="fill:#408ecb; stroke:none;" d="M262 645L263 646L262 645z"/>
<path style="fill:#8fd5fb; stroke:none;" d="M610 645L611 646L610 645M263 646L264 647L263 646z"/>
<path style="fill:#408ecb; stroke:none;" d="M264 646L265 647L264 646M608 646L609 647L608 646z"/>
<path style="fill:#8fd5fb; stroke:none;" d="M265 647L266 648L265 647z"/>
<path style="fill:#408ecb; stroke:none;" d="M606 647L607 648L606 647z"/>
<path style="fill:#8fd5fb; stroke:none;" d="M607 647L608 648L607 647M267 648L268 649L267 648z"/>
<path style="fill:#408ecb; stroke:none;" d="M604 648L605 649L604 648z"/>
<path style="fill:#8fd5fb; stroke:none;" d="M605 648L606 649L605 648z"/>
<path style="fill:#408ecb; stroke:none;" d="M269 649L270 650L269 649M602 649L603 650L602 649z"/>
<path style="fill:#8fd5fb; stroke:none;" d="M603 649L604 650L603 649M77 724L77 725L299 850.424L375 893.424L421 919L421 812L421 782C421 778.023 422.095 772.064 420.397 768.379C418.415 764.079 410.9 761.623 407 759.424C395.109 752.721 383.088 746.085 371 739.745C330.248 718.37 290.641 694.808 250 673.22C239.923 667.867 230.002 662.188 220 656.694C215.974 654.484 210.842 650.258 206 650.607C194.727 651.418 178.791 665.23 169 670.85C138.292 688.477 107.497 706.015 77 724z"/>
<path style="fill:#408ecb; stroke:none;" d="M271 650L272 651L271 650z"/>
<path style="fill:#8fd5fb; stroke:none;" d="M601 650L602 651L601 650M451 919L489 898.306L579 847.421L731 761.424L795 725C787.57 716.326 772.914 710.81 763 705.15C740.953 692.565 719.017 679.788 697 667.15C689.504 662.847 673.824 649.355 665 650.631C653.055 652.359 638.576 664.479 628 670.231C597.927 686.584 568.004 703.216 538 719.694C517.33 731.046 496.717 742.504 476 753.769C469.551 757.276 455.822 761.782 452.028 768.213C450.014 771.626 451 777.194 451 781L451 810L451 919M272 651L273 652L272 651z"/>
<path style="fill:#408ecb; stroke:none;" d="M273 651L274 652L273 651M599 651L600 652L599 651z"/>
<path style="fill:#8fd5fb; stroke:none;" d="M274 652L275 653L274 652z"/>
<path style="fill:#408ecb; stroke:none;" d="M275 652L276 653L275 652M597 652L598 653L597 652z"/>
<path style="fill:#8fd5fb; stroke:none;" d="M276 653L277 654L276 653z"/>
<path style="fill:#408ecb; stroke:none;" d="M595 653L596 654L595 653z"/>
<path style="fill:#8fd5fb; stroke:none;" d="M596 653L597 654L596 653M278 654L279 655L278 654z"/>
<path style="fill:#408ecb; stroke:none;" d="M593 654L594 655L593 654z"/>
<path style="fill:#8fd5fb; stroke:none;" d="M594 654L595 655L594 654z"/>
<path style="fill:#408ecb; stroke:none;" d="M280 655L281 656L280 655z"/>
<path style="fill:#8fd5fb; stroke:none;" d="M592 655L593 656L592 655M281 656L282 657L281 656z"/>
<path style="fill:#408ecb; stroke:none;" d="M282 656L283 657L282 656z"/>
<path style="fill:#8fd5fb; stroke:none;" d="M590 656L591 657L590 656M283 657L284 658L283 657z"/>
<path style="fill:#408ecb; stroke:none;" d="M284 657L285 658L284 657M588 657L589 658L588 657z"/>
<path style="fill:#8fd5fb; stroke:none;" d="M285 658L286 659L285 658z"/>
<path style="fill:#408ecb; stroke:none;" d="M586 658L587 659L586 658z"/>
<path style="fill:#8fd5fb; stroke:none;" d="M287 659L288 660L287 659z"/>
<path style="fill:#408ecb; stroke:none;" d="M584 659L585 660L584 659z"/>
<path style="fill:#8fd5fb; stroke:none;" d="M585 659L586 660L585 659z"/>
<path style="fill:#408ecb; stroke:none;" d="M289 660L290 661L289 660M582 660L583 661L582 660z"/>
<path style="fill:#8fd5fb; stroke:none;" d="M583 660L584 661L583 660z"/>
<path style="fill:#408ecb; stroke:none;" d="M291 661L292 662L291 661z"/>
<path style="fill:#8fd5fb; stroke:none;" d="M581 661L582 662L581 661M292 662L293 663L292 662z"/>
<path style="fill:#408ecb; stroke:none;" d="M293 662L294 663L293 662z"/>
<path style="fill:#8fd5fb; stroke:none;" d="M579 662L580 663L579 662M294 663L295 664L294 663z"/>
<path style="fill:#408ecb; stroke:none;" d="M295 663L296 664L295 663M577 663L578 664L577 663z"/>
<path style="fill:#8fd5fb; stroke:none;" d="M296 664L297 665L296 664z"/>
<path style="fill:#408ecb; stroke:none;" d="M575 664L576 665L575 664z"/>
<path style="fill:#8fd5fb; stroke:none;" d="M576 664L577 665L576 664M298 665L299 666L298 665z"/>
<path style="fill:#408ecb; stroke:none;" d="M573 665L574 666L573 665z"/>
<path style="fill:#8fd5fb; stroke:none;" d="M574 665L575 666L574 665z"/>
<path style="fill:#408ecb; stroke:none;" d="M300 666L301 667L300 666z"/>
<path style="fill:#8fd5fb; stroke:none;" d="M572 666L573 667L572 666M301 667L302 668L301 667z"/>
<path style="fill:#408ecb; stroke:none;" d="M302 667L303 668L302 667z"/>
<path style="fill:#8fd5fb; stroke:none;" d="M570 667L571 668L570 667M303 668L304 669L303 668z"/>
<path style="fill:#408ecb; stroke:none;" d="M304 668L305 669L304 668M568 668L569 669L568 668z"/>
<path style="fill:#8fd5fb; stroke:none;" d="M305 669L306 670L305 669z"/>
<path style="fill:#408ecb; stroke:none;" d="M566 669L567 670L566 669z"/>
<path style="fill:#8fd5fb; stroke:none;" d="M307 670L308 671L307 670z"/>
<path style="fill:#408ecb; stroke:none;" d="M564 670L565 671L564 670z"/>
<path style="fill:#8fd5fb; stroke:none;" d="M565 670L566 671L565 670z"/>
<path style="fill:#408ecb; stroke:none;" d="M309 671L310 672L309 671M562 671L563 672L562 671z"/>
<path style="fill:#8fd5fb; stroke:none;" d="M563 671L564 672L563 671z"/>
<path style="fill:#408ecb; stroke:none;" d="M311 672L312 673L311 672z"/>
<path style="fill:#8fd5fb; stroke:none;" d="M561 672L562 673L561 672M312 673L313 674L312 673z"/>
<path style="fill:#408ecb; stroke:none;" d="M313 673L314 674L313 673z"/>
<path style="fill:#8fd5fb; stroke:none;" d="M559 673L560 674L559 673M314 674L315 675L314 674z"/>
<path style="fill:#408ecb; stroke:none;" d="M315 674L316 675L315 674M557 674L558 675L557 674z"/>
<path style="fill:#8fd5fb; stroke:none;" d="M316 675L317 676L316 675z"/>
<path style="fill:#408ecb; stroke:none;" d="M555 675L556 676L555 675z"/>
<path style="fill:#8fd5fb; stroke:none;" d="M556 675L557 676L556 675M318 676L319 677L318 676z"/>
<path style="fill:#408ecb; stroke:none;" d="M553 676L554 677L553 676z"/>
<path style="fill:#8fd5fb; stroke:none;" d="M554 676L555 677L554 676z"/>
<path style="fill:#408ecb; stroke:none;" d="M320 677L321 678L320 677z"/>
<path style="fill:#8fd5fb; stroke:none;" d="M552 677L553 678L552 677M321 678L322 679L321 678z"/>
<path style="fill:#408ecb; stroke:none;" d="M322 678L323 679L322 678z"/>
<path style="fill:#8fd5fb; stroke:none;" d="M550 678L551 679L550 678M323 679L324 680L323 679z"/>
<path style="fill:#408ecb; stroke:none;" d="M324 679L325 680L324 679M548 679L549 680L548 679z"/>
<path style="fill:#8fd5fb; stroke:none;" d="M325 680L326 681L325 680z"/>
<path style="fill:#408ecb; stroke:none;" d="M546 680L547 681L546 680z"/>
<path style="fill:#8fd5fb; stroke:none;" d="M327 681L328 682L327 681z"/>
<path style="fill:#408ecb; stroke:none;" d="M544 681L545 682L544 681z"/>
<path style="fill:#8fd5fb; stroke:none;" d="M545 681L546 682L545 681z"/>
<path style="fill:#408ecb; stroke:none;" d="M329 682L330 683L329 682M542 682L543 683L542 682z"/>
<path style="fill:#8fd5fb; stroke:none;" d="M543 682L544 683L543 682z"/>
<path style="fill:#408ecb; stroke:none;" d="M331 683L332 684L331 683z"/>
<path style="fill:#8fd5fb; stroke:none;" d="M541 683L542 684L541 683M332 684L333 685L332 684z"/>
<path style="fill:#408ecb; stroke:none;" d="M333 684L334 685L333 684z"/>
<path style="fill:#8fd5fb; stroke:none;" d="M539 684L540 685L539 684M334 685L335 686L334 685z"/>
<path style="fill:#408ecb; stroke:none;" d="M335 685L336 686L335 685M537 685L538 686L537 685z"/>
<path style="fill:#8fd5fb; stroke:none;" d="M336 686L337 687L336 686z"/>
<path style="fill:#408ecb; stroke:none;" d="M535 686L536 687L535 686z"/>
<path style="fill:#8fd5fb; stroke:none;" d="M536 686L537 687L536 686M338 687L339 688L338 687z"/>
<path style="fill:#408ecb; stroke:none;" d="M533 687L534 688L533 687z"/>
<path style="fill:#8fd5fb; stroke:none;" d="M534 687L535 688L534 687z"/>
<path style="fill:#408ecb; stroke:none;" d="M340 688L341 689L340 688z"/>
<path style="fill:#8fd5fb; stroke:none;" d="M532 688L533 689L532 688M341 689L342 690L341 689z"/>
<path style="fill:#408ecb; stroke:none;" d="M342 689L343 690L342 689z"/>
<path style="fill:#8fd5fb; stroke:none;" d="M530 689L531 690L530 689M343 690L344 691L343 690z"/>
<path style="fill:#408ecb; stroke:none;" d="M344 690L345 691L344 690M528 690L529 691L528 690z"/>
<path style="fill:#8fd5fb; stroke:none;" d="M345 691L346 692L345 691z"/>
<path style="fill:#408ecb; stroke:none;" d="M526 691L527 692L526 691z"/>
<path style="fill:#8fd5fb; stroke:none;" d="M347 692L348 693L347 692z"/>
<path style="fill:#408ecb; stroke:none;" d="M524 692L525 693L524 692z"/>
<path style="fill:#8fd5fb; stroke:none;" d="M525 692L526 693L525 692z"/>
<path style="fill:#408ecb; stroke:none;" d="M349 693L350 694L349 693M522 693L523 694L522 693z"/>
<path style="fill:#8fd5fb; stroke:none;" d="M523 693L524 694L523 693z"/>
<path style="fill:#408ecb; stroke:none;" d="M351 694L352 695L351 694z"/>
<path style="fill:#8fd5fb; stroke:none;" d="M521 694L522 695L521 694M352 695L353 696L352 695z"/>
<path style="fill:#408ecb; stroke:none;" d="M353 695L354 696L353 695z"/>
<path style="fill:#8fd5fb; stroke:none;" d="M519 695L520 696L519 695M354 696L355 697L354 696z"/>
<path style="fill:#408ecb; stroke:none;" d="M355 696L356 697L355 696M517 696L518 697L517 696z"/>
<path style="fill:#8fd5fb; stroke:none;" d="M356 697L357 698L356 697z"/>
<path style="fill:#408ecb; stroke:none;" d="M515 697L516 698L515 697z"/>
<path style="fill:#8fd5fb; stroke:none;" d="M516 697L517 698L516 697M358 698L359 699L358 698z"/>
<path style="fill:#408ecb; stroke:none;" d="M513 698L514 699L513 698z"/>
<path style="fill:#8fd5fb; stroke:none;" d="M514 698L515 699L514 698z"/>
<path style="fill:#408ecb; stroke:none;" d="M360 699L361 700L360 699z"/>
<path style="fill:#8fd5fb; stroke:none;" d="M512 699L513 700L512 699M361 700L362 701L361 700z"/>
<path style="fill:#408ecb; stroke:none;" d="M362 700L363 701L362 700z"/>
<path style="fill:#8fd5fb; stroke:none;" d="M510 700L511 701L510 700M363 701L364 702L363 701z"/>
<path style="fill:#408ecb; stroke:none;" d="M364 701L365 702L364 701M508 701L509 702L508 701z"/>
<path style="fill:#8fd5fb; stroke:none;" d="M365 702L366 703L365 702z"/>
<path style="fill:#408ecb; stroke:none;" d="M506 702L507 703L506 702z"/>
<path style="fill:#8fd5fb; stroke:none;" d="M367 703L368 704L367 703z"/>
<path style="fill:#408ecb; stroke:none;" d="M504 703L505 704L504 703z"/>
<path style="fill:#8fd5fb; stroke:none;" d="M505 703L506 704L505 703z"/>
<path style="fill:#408ecb; stroke:none;" d="M369 704L370 705L369 704M502 704L503 705L502 704z"/>
<path style="fill:#8fd5fb; stroke:none;" d="M503 704L504 705L503 704z"/>
<path style="fill:#408ecb; stroke:none;" d="M371 705L372 706L371 705z"/>
<path style="fill:#8fd5fb; stroke:none;" d="M501 705L502 706L501 705M372 706L373 707L372 706z"/>
<path style="fill:#408ecb; stroke:none;" d="M373 706L374 707L373 706z"/>
<path style="fill:#8fd5fb; stroke:none;" d="M499 706L500 707L499 706M374 707L375 708L374 707z"/>
<path style="fill:#408ecb; stroke:none;" d="M375 707L376 708L375 707M497 707L498 708L497 707z"/>
<path style="fill:#8fd5fb; stroke:none;" d="M376 708L377 709L376 708z"/>
<path style="fill:#408ecb; stroke:none;" d="M495 708L496 709L495 708z"/>
<path style="fill:#8fd5fb; stroke:none;" d="M496 708L497 709L496 708M378 709L379 710L378 709z"/>
<path style="fill:#408ecb; stroke:none;" d="M493 709L494 710L493 709z"/>
<path style="fill:#8fd5fb; stroke:none;" d="M494 709L495 710L494 709z"/>
<path style="fill:#408ecb; stroke:none;" d="M380 710L381 711L380 710z"/>
<path style="fill:#8fd5fb; stroke:none;" d="M492 710L493 711L492 710M381 711L382 712L381 711z"/>
<path style="fill:#408ecb; stroke:none;" d="M382 711L383 712L382 711z"/>
<path style="fill:#8fd5fb; stroke:none;" d="M490 711L491 712L490 711M383 712L384 713L383 712z"/>
<path style="fill:#408ecb; stroke:none;" d="M384 712L385 713L384 712M488 712L489 713L488 712z"/>
<path style="fill:#8fd5fb; stroke:none;" d="M385 713L386 714L385 713z"/>
<path style="fill:#408ecb; stroke:none;" d="M386 713L387 714L386 713M486 713L487 714L486 713z"/>
<path style="fill:#8fd5fb; stroke:none;" d="M387 714L388 715L387 714z"/>
<path style="fill:#408ecb; stroke:none;" d="M484 714L485 715L484 714z"/>
<path style="fill:#8fd5fb; stroke:none;" d="M485 714L486 715L485 714z"/>
<path style="fill:#408ecb; stroke:none;" d="M389 715L390 716L389 715M482 715L483 716L482 715z"/>
<path style="fill:#8fd5fb; stroke:none;" d="M483 715L484 716L483 715z"/>
<path style="fill:#408ecb; stroke:none;" d="M391 716L392 717L391 716z"/>
<path style="fill:#8fd5fb; stroke:none;" d="M481 716L482 717L481 716M392 717L393 718L392 717z"/>
<path style="fill:#408ecb; stroke:none;" d="M393 717L394 718L393 717z"/>
<path style="fill:#8fd5fb; stroke:none;" d="M479 717L480 718L479 717M394 718L395 719L394 718z"/>
<path style="fill:#408ecb; stroke:none;" d="M395 718L396 719L395 718M477 718L478 719L477 718z"/>
<path style="fill:#8fd5fb; stroke:none;" d="M396 719L397 720L396 719z"/>
<path style="fill:#408ecb; stroke:none;" d="M475 719L476 720L475 719z"/>
<path style="fill:#8fd5fb; stroke:none;" d="M476 719L477 720L476 719M398 720L399 721L398 720z"/>
<path style="fill:#408ecb; stroke:none;" d="M473 720L474 721L473 720z"/>
<path style="fill:#8fd5fb; stroke:none;" d="M474 720L475 721L474 720z"/>
<path style="fill:#408ecb; stroke:none;" d="M400 721L401 722L400 721z"/>
<path style="fill:#8fd5fb; stroke:none;" d="M472 721L473 722L472 721M401 722L402 723L401 722z"/>
<path style="fill:#408ecb; stroke:none;" d="M402 722L403 723L402 722z"/>
<path style="fill:#8fd5fb; stroke:none;" d="M470 722L471 723L470 722M403 723L404 724L403 723z"/>
<path style="fill:#408ecb; stroke:none;" d="M404 723L405 724L404 723M468 723L469 724L468 723z"/>
<path style="fill:#8fd5fb; stroke:none;" d="M405 724L406 725L405 724z"/>
<path style="fill:#408ecb; stroke:none;" d="M406 724L407 725L406 724M466 724L467 725L466 724z"/>
<path style="fill:#8fd5fb; stroke:none;" d="M407 725L408 726L407 725z"/>
<path style="fill:#408ecb; stroke:none;" d="M464 725L465 726L464 725z"/>
<path style="fill:#8fd5fb; stroke:none;" d="M465 725L466 726L465 725M409 726L410 727L409 726z"/>
<path style="fill:#408ecb; stroke:none;" d="M462 726L463 727L462 726z"/>
<path style="fill:#8fd5fb; stroke:none;" d="M463 726L464 727L463 726z"/>
<path style="fill:#408ecb; stroke:none;" d="M411 727L412 728L411 727z"/>
<path style="fill:#8fd5fb; stroke:none;" d="M461 727L462 728L461 727M412 728L413 729L412 728z"/>
<path style="fill:#408ecb; stroke:none;" d="M413 728L414 729L413 728z"/>
<path style="fill:#8fd5fb; stroke:none;" d="M459 728L460 729L459 728M414 729L415 730L414 729z"/>
<path style="fill:#408ecb; stroke:none;" d="M415 729L416 730L415 729M457 729L458 730L457 729z"/>
<path style="fill:#8fd5fb; stroke:none;" d="M416 730L417 731L416 730z"/>
<path style="fill:#408ecb; stroke:none;" d="M455 730L456 731L455 730z"/>
<path style="fill:#8fd5fb; stroke:none;" d="M456 730L457 731L456 730M418 731L419 732L418 731z"/>
<path style="fill:#408ecb; stroke:none;" d="M453 731L454 732L453 731z"/>
<path style="fill:#8fd5fb; stroke:none;" d="M454 731L455 732L454 731z"/>
<path style="fill:#408ecb; stroke:none;" d="M420 732L421 733L420 732z"/>
<path style="fill:#010101; stroke:none;" d="M0 743L0 989L435 989C423.734 977.579 403.967 970.484 390 962.576C357.342 944.084 324.77 925.432 292 907.14C226.134 870.374 160.575 833.001 95 795.719C74.682 784.167 54.3008 772.732 34 761.15C23.322 755.059 11.829 746.414 0 743M439 988L439 989L874 989L874 743L826 769.14L728 824.576L439 988z"/>
</svg>
